<?xml version="1.0" encoding="UTF-8" standalone="no"?>
<!-- Created with Inkscape (http://www.inkscape.org/) -->

<svg
   version="1.1"
   id="svg1"
   width="394.73334"
   height="274.14667"
   viewBox="0 0 394.73334 274.14667"
   xmlns="http://www.w3.org/2000/svg"
   xmlns:svg="http://www.w3.org/2000/svg">
  <defs
     id="defs1" />
  <g
     id="g1">
    <path
       id="path1"
       d="M 7.24733,0 C 7.24733,4.00262 4.00262,7.24733 0,7.24733 -4.00262,7.24733 -7.24733,4.00262 -7.24733,0 c 0,-4.00262 3.24471,-7.24733 7.24733,-7.24733 4.00262,0 7.24733,3.24471 7.24733,7.24733 z"
       style="fill:none;stroke:#000000;stroke-width:0.3985;stroke-linecap:butt;stroke-linejoin:miter;stroke-miterlimit:10;stroke-dasharray:none;stroke-opacity:1"
       transform="matrix(1.3333333,0,0,-1.3333333,23.21216,137.0724)" />
    <path
       id="path2"
       d="m 6.9265687,-5.1568825 c 0.082031,-0.3632812 0.2578125,-0.65625 0.9492188,-0.6914062 0.058594,0 0.1640625,-0.011719 0.1640625,-0.1640625 0,-0.070312 -0.046875,-0.1054688 -0.1289063,-0.1054688 -0.1875,0 -0.6914062,0.023437 -0.890625,0.023437 -0.2226562,0 -0.2460937,0 -0.4570312,-0.011719 -0.140625,0 -0.328125,-0.011719 -0.46875,-0.011719 -0.035156,0 -0.1640625,0 -0.1640625,0.1523438 0,0.1171875 0.1171875,0.1171875 0.1640625,0.1171875 0.3398437,0.011719 0.5976562,0.09375 0.5976562,0.3867187 0,0.046875 -0.023437,0.1757813 -0.023437,0.1757813 L 5.6609437,-1.289695 3.6101625,-5.9420387 C 3.5281312,-6.11782 3.5281312,-6.11782 3.3171937,-6.11782 H 2.1218812 c -0.1640625,0 -0.2695312,0 -0.2695312,0.1523438 0,0.1171875 0.09375,0.1171875 0.2695312,0.1171875 0.046875,0 0.375,0 0.5976563,0.058594 L 1.5125062,-0.94985125 C 1.3953187,-0.5162575 1.1726625,-0.30532 0.55156875,-0.2818825 c -0.0351563,0 -0.15234375,0.0117188 -0.15234375,0.1640625 0,0.0234375 0,0.1171875 0.1171875,0.1171875 0.1171875,0 0.33984375,-0.01171875 0.45703125,-0.0234375 0.14062495,0 0.15234375,0 0.44531245,0 0.2226563,0 0.2460938,0 0.4570313,0 0.140625,0 0.328125,0.0234375 0.46875,0.0234375 0.035156,0 0.1523437,0 0.1523437,-0.1640625 0,-0.10546875 -0.09375,-0.1171875 -0.1757812,-0.1171875 -0.421875,0 -0.5859375,-0.140625 -0.5859375,-0.38671875 0,-0.0585938 0.011719,-0.0703125 0.035156,-0.1875 L 2.9539125,-5.5904762 5.3562562,-0.164695 C 5.41485,-0.02407 5.4265687,-6.325e-4 5.5086,-6.325e-4 c 0.1171875,0 0.1289062,-0.03515625 0.1640625,-0.1875 z m 0,0"
       style="fill:#000000;fill-opacity:1;fill-rule:nonzero;stroke:none"
       aria-label="N"
       transform="matrix(1.3333333,0,0,1.3333333,17.6552,141.15709)" />
    <path
       id="path3"
       d="m 6.6445941,-3.0360512 c 0,-1.828125 -1.3945313,-3.28125 -3.0703125,-3.28125 -1.6757813,0 -3.05859379,1.453125 -3.05859379,3.28125 0,1.8164062 1.39453129,3.23437495 3.05859379,3.23437495 1.6757812,0 3.0703125,-1.41796875 3.0703125,-3.23437495 z m -0.9140625,-0.140625 c 0,2.32031245 -1.2539063,3.1054687 -2.15625,3.1054687 -0.9023438,0 -2.1445313,-0.78515625 -2.1445313,-3.1054687 0,-2.1796875 1.2773438,-2.8945313 2.1445313,-2.8945313 0.8671875,0 2.15625,0.7148438 2.15625,2.8945313 z m 7.9013674,-0.4101563 v -0.28125 c -0.363281,0.035156 -0.386719,0.035156 -0.679688,0.035156 -0.339843,0 -0.46875,0 -0.820312,-0.035156 v 0.28125 c 0.386719,0.011719 0.503906,0.2460938 0.503906,0.4335938 0,0.082031 -0.01172,0.140625 -0.03516,0.1992187 l -0.832031,2.25 -0.902344,-2.4609375 C 10.8194,-3.282145 10.8194,-3.3055825 10.8194,-3.3407387 c 0,-0.2226563 0.28125,-0.2460938 0.515625,-0.2460938 v -0.28125 c -0.410156,0.035156 -0.785156,0.035156 -0.925781,0.035156 -0.28125,0 -0.539063,0 -0.820313,-0.035156 v 0.28125 c 0.28125,0 0.457031,0.011719 0.5625,0.1289063 0.08203,0.1054687 0.199219,0.4570312 0.199219,0.4921875 l -0.04687,0.1171875 -0.7382815,2.0273437 -0.8554687,-2.3320312 c -0.046875,-0.140625 -0.046875,-0.1523438 -0.046875,-0.1875 0,-0.2460938 0.3515625,-0.2460938 0.515625,-0.2460938 v -0.28125 l -0.9726563,0.035156 c -0.3046875,0 -0.5625,0 -0.8671875,-0.035156 v 0.28125 c 0.4335938,0 0.5507813,0.023437 0.65625,0.328125 l 1.1601563,3.1640625 c 0.046875,0.10546875 0.070312,0.1875 0.1992187,0.1875 0.140625,0 0.1757813,-0.09375 0.2109375,-0.1875 l 0.9140625,-2.5078125 0.925781,2.5078125 c 0.03516,0.09375 0.07031,0.1875 0.199219,0.1875 0.140625,0 0.164063,-0.08203125 0.199219,-0.17578125 l 1.0664,-2.91796875 c 0.199219,-0.5390625 0.5625,-0.5742187 0.761719,-0.5859375 z m 5.083008,3.5859375 v -0.28125 c -0.457032,0 -0.679688,0 -0.679688,-0.26953125 V -2.2743325 c 0,-0.75 0,-1.0078125 -0.257812,-1.3242187 -0.199219,-0.2460938 -0.550782,-0.3632813 -0.996094,-0.3632813 -0.832031,0 -1.21875,0.6210938 -1.347656,0.8671875 v -0.8671875 l -1.300782,0.09375 v 0.28125 c 0.609375,0 0.691407,0.058594 0.691407,0.5039063 v 2.39062495 c 0,0.41015625 -0.105469,0.41015625 -0.691407,0.41015625 v 0.28125 c 0.421875,-0.0234375 0.585938,-0.0234375 1.019532,-0.0234375 0.433593,0 0.550781,0 1.019531,0.0234375 v -0.28125 c -0.585938,0 -0.691406,0 -0.691406,-0.41015625 V -2.3212075 c 0,-0.9492187 0.679687,-1.4179687 1.242187,-1.4179687 0.527344,0 0.644531,0.4335937 0.644531,0.9726562 v 2.07421875 c 0,0.41015625 -0.09375,0.41015625 -0.691406,0.41015625 v 0.28125 c 0.421875,-0.0234375 0.597656,-0.0234375 1.019531,-0.0234375 0.433594,0 0.550782,0 1.019532,0.0234375 z m 4.054687,-1.0664062 c 0,-0.058594 -0.04687,-0.1171875 -0.128906,-0.1171875 -0.09375,0 -0.117188,0.058594 -0.128906,0.09375 -0.304688,0.91406245 -1.101563,0.93749995 -1.230469,0.93749995 -0.433594,0 -0.796875,-0.24609375 -1.007813,-0.55078125 -0.292968,-0.4335937 -0.304687,-0.9726562 -0.304687,-1.3476562 H 22.5235 c 0.199219,0 0.246094,0 0.246094,-0.1875 0,-0.9257813 -0.503906,-1.78125 -1.652344,-1.78125 -1.078125,0 -1.921875,0.9375 -1.921875,2.0507812 0,1.171875 0.949219,2.0625 2.039063,2.0625 1.089844,0 1.535156,-0.94921875 1.535156,-1.1601562 z m -0.609375,-1.2070313 h -2.179687 c 0.08203,-1.3710937 0.878906,-1.5234375 1.136718,-1.5234375 0.492188,0 1.03125,0.3867188 1.042969,1.5234375 z m 4.212891,-1.1367187 c 0,-0.28125 -0.269532,-0.5507813 -0.667969,-0.5507813 -0.539063,0 -0.914063,0.375 -1.125,0.9257813 v -0.9257813 l -1.277344,0.09375 v 0.28125 c 0.609375,0 0.691406,0.058594 0.691406,0.5039063 v 2.39062495 c 0,0.41015625 -0.105468,0.41015625 -0.691406,0.41015625 v 0.28125 c 0.46875,-0.0234375 0.585938,-0.0234375 1.042969,-0.0234375 l 1.148437,0.0234375 v -0.28125 h -0.1875 c -0.65625,0 -0.679687,-0.09375 -0.679687,-0.421875 v -1.3476562 c 0,-0.375 0.105469,-1.6875 1.125,-1.6875 v 0.011719 c -0.02344,0.011719 -0.164063,0.1171875 -0.164063,0.328125 0,0.2460938 0.1875,0.3984375 0.398438,0.3984375 0.1875,0 0.386719,-0.140625 0.386719,-0.4101565 z m 0,0"
       style="fill:#000000;fill-opacity:1;fill-rule:nonzero;stroke:none"
       aria-label="Owner"
       transform="matrix(1.3333333,0,0,1.3333333,118.83976,65.563693)" />
    <path
       id="path4"
       d="M 3.0236766,-4.196875e-4 V -0.28166969 H 2.8010203 c -0.7265625,0 -0.7382812,-0.10546875 -0.7382812,-0.421875 V -5.4144822 c 0,-0.328125 0.011719,-0.4335937 0.7382812,-0.4335937 h 0.2226563 v -0.2695313 c -0.375,0.023437 -0.984375,0.023437 -1.359375,0.023437 -0.3867188,0 -0.99609379,0 -1.37109379,-0.023437 v 0.2695313 h 0.22265625 c 0.72656254,0 0.73828124,0.1054687 0.73828124,0.4335937 v 4.71093751 c 0,0.31640625 -0.011719,0.421875 -0.73828124,0.421875 H 0.29320781 V -4.196875e-4 C 0.66820781,-0.02385719 1.2775828,-0.02385719 1.6643016,-0.02385719 c 0.375,0 0.984375,0 1.359375,0.0234375025 z m 5.2001953,0 V -0.28166969 c -0.4570313,0 -0.6796875,0 -0.6796875,-0.26953125 V -2.2738572 c 0,-0.75 0,-1.0078125 -0.2578125,-1.3242187 -0.1992188,-0.2460938 -0.5507813,-0.3632813 -0.9960938,-0.3632813 -0.8320312,0 -1.21875,0.6210938 -1.3476562,0.8671875 v -0.8671875 l -1.3007813,0.09375 v 0.28125 c 0.609375,0 0.6914063,0.058594 0.6914063,0.5039063 v 2.39062496 c 0,0.41015625 -0.1054688,0.41015625 -0.6914063,0.41015625 V -4.196875e-4 C 4.0637156,-0.02385719 4.2277781,-0.02385719 4.6613719,-0.02385719 c 0.4335937,0 0.5507812,0 1.0195312,0.0234375025 V -0.28166969 c -0.5859375,0 -0.6914062,0 -0.6914062,-0.41015625 V -2.3207322 c 0,-0.9492187 0.6796875,-1.4179687 1.2421875,-1.4179687 0.5273437,0 0.6445312,0.4335937 0.6445312,0.9726562 v 2.07421876 c 0,0.41015625 -0.09375,0.41015625 -0.6914062,0.41015625 V -4.196875e-4 C 6.6066844,-0.02385719 6.7824656,-0.02385719 7.2043406,-0.02385719 c 0.4335938,0 0.5507813,0 1.0195313,0.0234375025 z M 11.264887,-1.1137009 v -0.5039063 h -0.257812 v 0.4804688 c 0,0.65624996 -0.28125,0.98437496 -0.597656,0.98437496 -0.5976565,0 -0.5976565,-0.78515625 -0.5976565,-0.94921876 v -2.484375 h 1.3007815 v -0.28125 H 9.8117625 v -1.640625 H 9.55395 c 0,0.75 -0.3164063,1.6757813 -1.1835938,1.6992188 v 0.2226562 h 0.7734375 v 2.4726563 c 0,1.00781246 0.7265625,1.20703121 1.2070313,1.20703121 0.597656,0 0.914062,-0.57421875 0.914062,-1.20703121 z m 3.855469,-2.296875 c 0,-0.28125 -0.269531,-0.5507813 -0.667969,-0.5507813 -0.539062,0 -0.914062,0.375 -1.125,0.9257813 v -0.9257813 l -1.277343,0.09375 v 0.28125 c 0.609375,0 0.691406,0.058594 0.691406,0.5039063 v 2.39062496 c 0,0.41015625 -0.105469,0.41015625 -0.691406,0.41015625 V -4.196875e-4 C 12.518794,-0.02385719 12.635981,-0.02385719 13.093012,-0.02385719 L 14.24145,-4.196875e-4 V -0.28166969 h -0.1875 c -0.65625,0 -0.679688,-0.09375 -0.679688,-0.421875 V -2.0512009 c 0,-0.375 0.105469,-1.6875 1.125,-1.6875 v 0.011719 c -0.02344,0.011719 -0.164062,0.1171875 -0.164062,0.328125 0,0.2460938 0.1875,0.3984375 0.398437,0.3984375 0.1875,0 0.386719,-0.140625 0.386719,-0.4101565 z m 5.165039,3.4101562125 V -0.28166969 c -0.609375,0 -0.679687,-0.0585938 -0.679687,-0.50390625 V -3.9613572 l -1.359375,0.09375 v 0.28125 c 0.609375,0 0.691406,0.058594 0.691406,0.5039063 v 1.5820312 c 0,0.79687501 -0.445312,1.37109376 -1.089844,1.37109376 -0.75,0 -0.796875,-0.38671875 -0.796875,-0.8671875 V -3.9613572 l -1.347656,0.09375 v 0.28125 c 0.691406,0 0.691406,0.023437 0.691406,0.8203125 v 1.3476563 c 0,0.58593746 0,0.96093746 0.410157,1.27734371 0.257812,0.17578125 0.621093,0.234375 0.984375,0.234375 0.46875,0 0.902343,-0.19921875 1.160156,-0.73828125 h 0.01172 v 0.73828125 z m 5.059571,0 V -0.28166969 c -0.609375,0 -0.691407,-0.0585938 -0.691407,-0.50390625 V -6.2230759 l -1.324218,0.1054687 v 0.2695313 c 0.609375,0 0.691406,0.070312 0.691406,0.5039062 v 1.9101563 c -0.04687,-0.058594 -0.445313,-0.5273438 -1.148438,-0.5273438 -1.101562,0 -2.0625,0.8789063 -2.0625,2.0390625 0,1.11328126 0.902344,2.01562501 1.96875,2.01562501 0.644532,0 1.054688,-0.375 1.21875,-0.57421875 V 0.09333031 Z M 23.997309,-1.0785447 c 0,0.16406251 0,0.18750001 -0.140625,0.37500001 -0.28125,0.41015625 -0.691406,0.57421875 -1.042968,0.57421875 -0.386719,0 -0.75,-0.2109375 -0.984375,-0.5859375 -0.234375,-0.38671876 -0.246094,-0.91406246 -0.246094,-1.20703126 0,-0.421875 0.04687,-0.890625 0.28125,-1.2539062 0.199219,-0.28125 0.5625,-0.5625 1.042969,-0.5625 0.375,0 0.738281,0.1875 0.972656,0.5273437 0.117187,0.140625 0.117187,0.1523438 0.117187,0.328125 z m 5.460938,0.011719 c 0,-0.058594 -0.04687,-0.1171875 -0.128906,-0.1171875 -0.09375,0 -0.117188,0.058594 -0.128907,0.09375 -0.304687,0.91406246 -1.101562,0.93749996 -1.230468,0.93749996 -0.433594,0 -0.796875,-0.24609375 -1.007813,-0.55078125 C 26.669184,-1.1371384 26.657466,-1.6762009 26.657466,-2.0512009 h 2.554687 c 0.199219,0 0.246094,0 0.246094,-0.1875 0,-0.9257813 -0.503906,-1.78125 -1.652344,-1.78125 -1.078125,0 -1.921875,0.9375 -1.921875,2.0507812 0,1.17187501 0.949219,2.06250001 2.039063,2.06250001 1.089843,0 1.535156,-0.94921875 1.535156,-1.16015601 z M 28.848872,-2.273857 h -2.179688 c 0.08203,-1.3710937 0.878907,-1.5234375 1.136719,-1.5234375 0.492188,0 1.03125,0.3867188 1.042969,1.5234375 z m 4.21582,-1.1367187 c 0,-0.28125 -0.269531,-0.5507813 -0.667969,-0.5507813 -0.539062,0 -0.914062,0.375 -1.125,0.9257813 V -3.961357 l -1.277343,0.09375 v 0.28125 c 0.609375,0 0.691406,0.058594 0.691406,0.5039063 v 2.39062496 c 0,0.41015625 -0.105469,0.41015625 -0.691406,0.41015625 V -4.196875e-4 C 30.46313,-0.02385719 30.580317,-0.02385719 31.037348,-0.02385719 l 1.148438,0.0234375025 V -0.28166969 h -0.1875 c -0.65625,0 -0.679688,-0.09375 -0.679688,-0.421875 V -2.0512009 c 0,-0.375 0.105469,-1.6875 1.125,-1.6875 v 0.011719 c -0.02344,0.011719 -0.164062,0.1171875 -0.164062,0.328125 0,0.2460938 0.1875,0.3984375 0.398437,0.3984375 0.1875,0 0.386719,-0.140625 0.386719,-0.4101563 z m 0,0"
       style="fill:#000000;fill-opacity:1;fill-rule:nonzero;stroke:none"
       aria-label="Intruder"
       transform="matrix(1.3333333,0,0,1.3333333,114.3864,216.74665)" />
    <path
       id="path5"
       d="M 6.19577,4.13005 74.87764,49.91449"
       style="fill:none;stroke:#000000;stroke-width:0.79701;stroke-linecap:butt;stroke-linejoin:miter;stroke-miterlimit:10;stroke-dasharray:none;stroke-opacity:1"
       transform="matrix(1.3333333,0,0,-1.3333333,23.21216,137.0724)" />
    <g
       id="g5"
       aria-label="1/2"
       transform="matrix(1.3333333,0,0,1.3333333,68.0456,93.095107)">
      <path
         id="path6"
         d="m 2.731425,-5.7314862 c 0,-0.2226563 -0.011719,-0.234375 -0.234375,-0.234375 -0.5625,0.5625 -1.3828125,0.5625 -1.6640625,0.5625 v 0.28125 c 0.1757812,0 0.7148437,0 1.2070312,-0.234375 v 4.64062495 c 0,0.328125 -0.035156,0.43359375 -0.8671875,0.43359375 H 0.89158125 v 0.28125 C 1.2079875,-0.024455 2.0048625,-0.024455 2.3798625,-0.024455 c 0.3632812,0 1.171875,0 1.4882812,0.0234375 v -0.28125 h -0.28125 c -0.8320312,0 -0.8554687,-0.10546875 -0.8554687,-0.43359375 z m 0,0"
         style="fill:#000000;fill-opacity:1;fill-rule:nonzero;stroke:none" />
      <path
         id="path7"
         d="m 8.637675,-6.3642987 c 0.058594,-0.1289063 0.058594,-0.140625 0.058594,-0.1640625 0,-0.1171875 -0.09375,-0.1992188 -0.1875,-0.1992188 -0.1289062,0 -0.1640625,0.070312 -0.1757812,0.09375 L 5.168925,1.8857013 C 5.12205,2.0028888 5.12205,2.0263263 5.12205,2.038045 c 0,0.1171875 0.082031,0.1992188 0.1875,0.1992188 0.082031,0 0.1523437,-0.035156 0.2226562,-0.2109375 z m 0,0"
         style="fill:#000000;fill-opacity:1;fill-rule:nonzero;stroke:none" />
      <path
         id="path8"
         d="m 13.351542,-1.5830487 h -0.246094 c -0.02344,0.1171875 -0.09375,0.6445312 -0.210937,0.7851562 -0.04687,0.0820313 -0.667969,0.0820313 -0.84375,0.0820313 h -1.59375 l 0.878906,-0.8437499 c 1.476563,-1.2773439 2.015625,-1.7460939 2.015625,-2.6601563 0,-1.03125 -0.84375,-1.7460937 -1.945312,-1.7460937 -1.03125,0 -1.7343753,0.8085937 -1.7343753,1.6289062 0,0.4453124 0.3867183,0.4921874 0.4687503,0.4921874 0.199218,0 0.46875,-0.140625 0.46875,-0.4687499 0,-0.2695312 -0.1875,-0.46875 -0.46875,-0.46875 -0.04687,0 -0.07031,0 -0.105469,0.011719 0.210937,-0.6328125 0.785156,-0.9257813 1.265625,-0.9257813 0.914062,0 1.230469,0.8554688 1.230469,1.4765625 0,0.9140625 -0.691407,1.6523438 -1.125,2.1210938 l -1.6406253,1.76953115 c -0.09375,0.10546875 -0.09375,0.1171875 -0.09375,0.328125 h 3.4335933 z m 0,0"
         style="fill:#000000;fill-opacity:1;fill-rule:nonzero;stroke:none" />
    </g>
    <path
       id="path9"
       d="M 6.19577,-4.13005 75.0255,-50.01312"
       style="fill:none;stroke:#000000;stroke-width:0.79701;stroke-linecap:butt;stroke-linejoin:miter;stroke-miterlimit:10;stroke-dasharray:none;stroke-opacity:1"
       transform="matrix(1.3333333,0,0,-1.3333333,23.21216,137.0724)" />
    <g
       id="g9"
       aria-label="1/2"
       transform="matrix(1.3333333,0,0,1.3333333,68.14416,187.09311)">
      <path
         id="path10"
         d="m 2.7307472,-5.7299862 c 0,-0.2226563 -0.011719,-0.234375 -0.234375,-0.234375 -0.5625,0.5625 -1.3828125,0.5625 -1.66406251,0.5625 v 0.28125 c 0.17578121,0 0.71484371,0 1.20703121,-0.234375 v 4.64062495 c 0,0.328125 -0.035156,0.43359375 -0.8671875,0.43359375 H 0.89090344 v 0.28125 C 1.2073097,-0.022955 2.0041847,-0.022955 2.3791847,-0.022955 c 0.3632812,0 1.171875,0 1.4882812,0.0234375 v -0.28125 h -0.28125 c -0.8320312,0 -0.8554687,-0.10546875 -0.8554687,-0.43359375 z m 0,0"
         style="fill:#000000;fill-opacity:1;fill-rule:nonzero;stroke:none" />
      <path
         id="path11"
         d="m 8.6399269,-6.3627987 c 0.058594,-0.1289063 0.058594,-0.140625 0.058594,-0.1640625 0,-0.1171875 -0.09375,-0.1992188 -0.1875,-0.1992188 -0.1289062,0 -0.1640625,0.070312 -0.1757812,0.09375 L 5.1711769,1.8872013 c -0.046875,0.1171875 -0.046875,0.140625 -0.046875,0.1523437 0,0.1171875 0.082031,0.1992188 0.1875,0.1992188 0.082031,0 0.1523437,-0.035156 0.2226562,-0.2109375 z m 0,0"
         style="fill:#000000;fill-opacity:1;fill-rule:nonzero;stroke:none" />
      <path
         id="path12"
         d="m 13.350864,-1.5815487 h -0.246093 c -0.02344,0.1171875 -0.09375,0.6445312 -0.210938,0.7851562 -0.04687,0.0820313 -0.667969,0.0820313 -0.84375,0.0820313 h -1.59375 l 0.878906,-0.8437499 c 1.476563,-1.2773438 2.015625,-1.7460939 2.015625,-2.6601563 0,-1.03125 -0.84375,-1.7460937 -1.945312,-1.7460937 -1.03125,0 -1.7343751,0.8085937 -1.7343751,1.6289062 0,0.4453125 0.3867191,0.4921875 0.4687501,0.4921875 0.199219,0 0.46875,-0.140625 0.46875,-0.46875 0,-0.2695312 -0.1875,-0.46875 -0.46875,-0.46875 -0.04687,0 -0.07031,0 -0.105469,0.011719 0.210938,-0.6328125 0.785156,-0.9257813 1.265625,-0.9257813 0.914063,0 1.230469,0.8554688 1.230469,1.4765625 0,0.9140625 -0.691406,1.6523438 -1.125,2.1210938 l -1.6406251,1.76953115 c -0.09375,0.10546875 -0.09375,0.1171875 -0.09375,0.328125 h 3.4335941 z m 0,0"
         style="fill:#000000;fill-opacity:1;fill-rule:nonzero;stroke:none" />
    </g>
    <path
       id="path13"
       d="m 176.83418,56.69362 c 0,3.7298 -3.02353,6.75333 -6.75332,6.75333 -3.72982,0 -6.75333,-3.02353 -6.75333,-6.75333 0,-3.72982 3.02351,-6.75333 6.75333,-6.75333 3.72979,0 6.75332,3.02351 6.75332,6.75333 z"
       style="fill:none;stroke:#000000;stroke-width:0.3985;stroke-linecap:butt;stroke-linejoin:miter;stroke-miterlimit:10;stroke-dasharray:none;stroke-opacity:1"
       transform="matrix(1.3333333,0,0,-1.3333333,23.21216,137.0724)" />
    <path
       id="path14"
       d="m 3.4107525,-5.4955091 c 0.058594,-0.2226562 0.082031,-0.3164062 0.2460937,-0.3398437 0.082031,-0.011719 0.375,-0.011719 0.5625,-0.011719 0.7148438,0 1.6992188,0 1.6992188,0.9023438 0,0.3398437 -0.140625,1.0078125 -0.6445313,1.3945312 -0.2226562,0.140625 -0.6679687,0.375 -1.3945312,0.375 H 2.8365337 Z m 1.3945312,2.4609375 c 1.21875,-0.3164062 1.96875,-0.9960937 1.96875,-1.734375 0,-0.7851562 -0.84375,-1.3476562 -2.0390625,-1.3476562 H 2.1334087 c -0.1640625,0 -0.2695312,0 -0.2695312,0.1523437 0,0.1171875 0.082031,0.1171875 0.2695312,0.1171875 0.035156,0 0.1992188,0 0.3398438,0.023437 0.1523437,0.011719 0.2109375,0.035156 0.2109375,0.1289063 0,0.046875 0,0.082031 -0.035156,0.1875 l -1.2070312,4.82812499 c -0.082031,0.31640625 -0.09375,0.3984375 -0.7734375,0.3984375 -0.1640625,0 -0.26953125,0 -0.26953125,0.1640625 0,0.09375 0.0820313,0.1171874975 0.140625,0.1171874975 0.140625,0 0.41015625,-0.0117187475 0.56249995,-0.0234374975 0.1875,0 0.2109375,0 0.5625,0 0.28125,0 0.3046875,0 0.5625,0 0.1875,0.01171875 0.4101563,0.0234374975 0.5742188,0.0234374975 0.070312,0 0.1875,0 0.1875,-0.1640624975 0,-0.1171875 -0.09375,-0.1171875 -0.28125,-0.1171875 -0.035156,0 -0.1992188,0 -0.3398438,-0.0117188 -0.1992187,-0.0351563 -0.2109375,-0.0703125 -0.2109375,-0.140625 0,-0.0351563 0,-0.046875 0.046875,-0.2109375 L 2.77794,-2.9525403 h 1.1015625 c 0.8085937,0 1.0195312,0.46875 1.0195312,0.8085937 0,0.070312 0,0.1289063 -0.058594,0.328125 -0.2109375,0.82031254 -0.2109375,0.90234379 -0.2109375,1.03125004 0,0.80859375 0.7617187,0.984375 1.21875,0.984375 0.7734375,0 1.1015625,-0.90234375 1.1015625,-1.0546875 0,-0.0585938 -0.058594,-0.10546875 -0.1171875,-0.10546875 -0.09375,0 -0.1054688,0.046875 -0.140625,0.15234375 -0.1523438,0.46875 -0.4921875,0.78515625 -0.8203125,0.78515625 -0.3398438,0 -0.3632813,-0.26953125 -0.3632813,-0.52734375 0,-0.234375 0.070312,-0.75000004 0.082031,-0.80859374 0.011719,-0.1523438 0.058594,-0.5039063 0.058594,-0.6445313 0,-0.5039062 -0.328125,-0.8554687 -0.8437497,-1.03125 z m 0,0"
       style="fill:#000000;fill-opacity:1;fill-rule:nonzero;stroke:none"
       aria-label="R"
       transform="matrix(1.3333333,0,0,1.3333333,245.29608,65.565627)" />
    <path
       id="path15"
       d="m 176.83418,-56.69362 c 0,3.72982 -3.02353,6.75333 -6.75332,6.75333 -3.72982,0 -6.75333,-3.02351 -6.75333,-6.75333 0,-3.7298 3.02351,-6.75333 6.75333,-6.75333 3.72979,0 6.75332,3.02353 6.75332,6.75333 z"
       style="fill:none;stroke:#000000;stroke-width:0.3985;stroke-linecap:butt;stroke-linejoin:miter;stroke-miterlimit:10;stroke-dasharray:none;stroke-opacity:1"
       transform="matrix(1.3333333,0,0,-1.3333333,23.21216,137.0724)" />
    <path
       id="path16"
       d="m 3.4107525,-5.4950338 c 0.058594,-0.2226562 0.082031,-0.3164062 0.2460937,-0.3398437 0.082031,-0.011719 0.375,-0.011719 0.5625,-0.011719 0.7148438,0 1.6992188,0 1.6992188,0.9023438 0,0.3398437 -0.140625,1.0078125 -0.6445313,1.3945312 -0.2226562,0.140625 -0.6679687,0.375 -1.3945312,0.375 H 2.8365337 Z m 1.3945312,2.4609375 c 1.21875,-0.3164062 1.96875,-0.9960937 1.96875,-1.734375 0,-0.7851562 -0.84375,-1.3476562 -2.0390625,-1.3476562 H 2.1334087 c -0.1640625,0 -0.2695312,0 -0.2695312,0.1523437 0,0.1171875 0.082031,0.1171875 0.2695312,0.1171875 0.035156,0 0.1992188,0 0.3398438,0.023437 0.1523437,0.011719 0.2109375,0.035156 0.2109375,0.1289063 0,0.046875 0,0.082031 -0.035156,0.1875 l -1.2070312,4.828125 c -0.082031,0.31640625 -0.09375,0.3984375 -0.7734375,0.3984375 -0.1640625,0 -0.26953125,0 -0.26953125,0.1640625 0,0.09375 0.0820313,0.1171875 0.140625,0.1171875 0.140625,0 0.41015625,-0.01171875 0.56249995,-0.0234375 0.1875,0 0.2109375,0 0.5625,0 0.28125,0 0.3046875,0 0.5625,0 0.1875,0.01171875 0.4101563,0.0234375 0.5742188,0.0234375 0.070312,0 0.1875,0 0.1875,-0.1640625 0,-0.1171875 -0.09375,-0.1171875 -0.28125,-0.1171875 -0.035156,0 -0.1992188,0 -0.3398438,-0.0117188 -0.1992187,-0.0351563 -0.2109375,-0.0703125 -0.2109375,-0.140625 0,-0.0351563 0,-0.046875 0.046875,-0.2109375 L 2.77794,-2.952065 h 1.1015625 c 0.8085937,0 1.0195312,0.46875 1.0195312,0.8085937 0,0.070312 0,0.1289063 -0.058594,0.328125 -0.2109375,0.82031255 -0.2109375,0.9023438 -0.2109375,1.03125005 0,0.80859375 0.7617187,0.984375 1.21875,0.984375 0.7734375,0 1.1015625,-0.90234375 1.1015625,-1.0546875 0,-0.0585938 -0.058594,-0.10546875 -0.1171875,-0.10546875 -0.09375,0 -0.1054688,0.046875 -0.140625,0.15234375 -0.1523438,0.46875 -0.4921875,0.78515625 -0.8203125,0.78515625 -0.3398438,0 -0.3632813,-0.26953125 -0.3632813,-0.52734375 0,-0.234375 0.070312,-0.75000005 0.082031,-0.80859375 0.011719,-0.1523438 0.058594,-0.5039063 0.058594,-0.6445313 0,-0.5039062 -0.328125,-0.8554687 -0.8437497,-1.03125 z m 0,0"
       style="fill:#000000;fill-opacity:1;fill-rule:nonzero;stroke:none"
       aria-label="R"
       transform="matrix(1.3333333,0,0,1.3333333,245.29608,216.74859)" />
    <path
       id="path17"
       d="m 101.87996,56.69362 h 61.24831"
       style="fill:none;stroke:#000000;stroke-width:0.79701;stroke-linecap:butt;stroke-linejoin:miter;stroke-miterlimit:10;stroke-dasharray:none;stroke-opacity:1"
       transform="matrix(1.3333333,0,0,-1.3333333,23.21216,137.0724)" />
    <g
       id="g17"
       aria-label="m=O"
       transform="matrix(1.3333333,0,0,1.3333333,181.43459,56.522147)">
      <path
         id="path18"
         d="m 1.6984741,-1.4052819 c 0.09375,-0.421875 0.2695312,-1.078125 0.2695312,-1.1484375 0.023437,-0.058594 0.2460938,-0.4804687 0.5625,-0.796875 0.2695313,-0.2460937 0.609375,-0.3867187 0.9609375,-0.3867187 0.4804688,0 0.4804688,0.4804687 0.4804688,0.6328125 0,0.1054687 0,0.2226562 -0.1054688,0.6679687 l -0.2109375,0.796875 c -0.28125,1.16015628 -0.3515625,1.42968753 -0.3515625,1.47656253 0,0.1171875 0.070312,0.2578125 0.2695313,0.2578125 0.1289062,0 0.2578125,-0.0703125 0.328125,-0.1875 0.023437,-0.046875 0.09375,-0.33984375 0.140625,-0.515625 L 4.2531616,-1.4052819 c 0.09375,-0.421875 0.2695312,-1.078125 0.2695312,-1.1484375 0.023437,-0.058594 0.2460938,-0.4804687 0.5742188,-0.796875 0.2578125,-0.2460937 0.5976562,-0.3867187 0.9492187,-0.3867187 0.4804688,0 0.4804688,0.4804687 0.4804688,0.6328125 0,0.5390625 -0.421875,1.640625 -0.515625,1.9101562 -0.1171875,0.28125003 -0.1523438,0.37500003 -0.1523438,0.53906253 0,0.48046875 0.375,0.75 0.7734375,0.75 0.8671875,0 1.2070313,-1.27734373 1.2070313,-1.37109373 0,-0.046875 -0.023437,-0.1171875 -0.1171875,-0.1171875 -0.09375,0 -0.1054688,0.046875 -0.140625,0.1640625 -0.2226563,0.76171873 -0.5976563,1.10156248 -0.9257813,1.10156248 -0.058594,0 -0.2226562,0 -0.2226562,-0.28125 0,-0.22265625 0.09375,-0.45703125 0.1640625,-0.65624998 0.1757812,-0.4570313 0.5390625,-1.40625 0.5390625,-1.9101563 0,-0.796875 -0.5976563,-0.984375 -1.0664063,-0.984375 -0.8554687,0 -1.3242187,0.6328125 -1.4765625,0.8554688 -0.09375,-0.7382813 -0.703125,-0.8554688 -1.078125,-0.8554688 -0.8320312,0 -1.2773437,0.5859375 -1.4179687,0.7734375 -0.058594,-0.4804687 -0.421875,-0.7734375 -0.8671875,-0.7734375 -0.37500004,0 -0.56250004,0.28125 -0.69140629,0.515625 -0.15234375,0.3164063 -0.28125,0.8320313 -0.28125,0.8671875 0,0.082031 0.0703125,0.1054688 0.12890625,0.1054688 0.09375,0 0.1171875,-0.046875 0.1640625,-0.2226563 0.1640625,-0.7148437 0.3515625,-1.0429687 0.65625004,-1.0429687 0.2695312,0 0.2695312,0.28125 0.2695312,0.421875 0,0.1875 -0.070312,0.46875 -0.1171875,0.703125 -0.070312,0.234375 -0.1523437,0.609375 -0.1992187,0.7265625 l -0.35156254,1.46484373 c -0.0703125,0.2109375 -0.0703125,0.234375 -0.0703125,0.2578125 0,0.1171875 0.0820313,0.2578125 0.28125004,0.2578125 0.1289062,0 0.2578125,-0.0703125 0.328125,-0.1875 0.023437,-0.046875 0.09375,-0.33984375 0.140625,-0.515625 z m 0,0"
         style="fill:#000000;fill-opacity:1;fill-rule:nonzero;stroke:none" />
      <path
         id="path19"
         d="m 17.029529,-2.9638756 c 0.117187,0 0.292968,0 0.292968,-0.1875 0,-0.1992188 -0.199218,-0.1992188 -0.328125,-0.1992188 h -5.472656 c -0.140625,0 -0.328125,0 -0.328125,0.1992188 0,0.1875 0.175781,0.1875 0.292969,0.1875 z m -0.03516,1.828125 c 0.128907,0 0.328125,0 0.328125,-0.1992188 0,-0.1875 -0.175781,-0.1875 -0.292968,-0.1875 H 11.48656 c -0.117188,0 -0.292969,0 -0.292969,0.1875 0,0.1992188 0.1875,0.1992188 0.328125,0.1992188 z m 0,0"
         style="fill:#000000;fill-opacity:1;fill-rule:nonzero;stroke:none" />
      <path
         id="path20"
         d="m 27.201404,-3.8779381 c 0,-1.4179688 -0.949219,-2.4375 -2.355469,-2.4375 -2.015625,0 -3.996094,2.0625 -3.996094,4.1015625 0,1.47656248 1.019531,2.41406248 2.367188,2.41406248 2.003906,0 3.984375,-2.00390628 3.984375,-4.07812498 z m -3.914063,3.80859373 c -0.867187,0 -1.570312,-0.65625 -1.570312,-1.92187503 0,-0.46875 0.152343,-1.7929687 0.890625,-2.8125 0.644531,-0.8789062 1.511718,-1.265625 2.167968,-1.265625 0.878907,0 1.605469,0.6328125 1.605469,1.8515625 0,0.5742188 -0.234375,1.8867188 -0.984375,2.90625 -0.667969,0.89062503 -1.5,1.24218753 -2.109375,1.24218753 z m 0,0"
         style="fill:#000000;fill-opacity:1;fill-rule:nonzero;stroke:none" />
    </g>
    <path
       id="path21"
       d="m 105.21999,-56.69362 h 57.90828"
       style="fill:none;stroke:#000000;stroke-width:0.79701;stroke-linecap:butt;stroke-linejoin:miter;stroke-miterlimit:10;stroke-dasharray:none;stroke-opacity:1"
       transform="matrix(1.3333333,0,0,-1.3333333,23.21216,137.0724)" />
    <g
       id="g21"
       aria-label="m=I"
       transform="matrix(1.3333333,0,0,1.3333333,185.35336,225.79207)">
      <path
         id="path22"
         d="m 1.6978706,-1.4055734 c 0.09375,-0.421875 0.2695313,-1.078125 0.2695313,-1.1484375 0.023437,-0.058594 0.2460937,-0.4804688 0.5625,-0.796875 0.2695312,-0.2460938 0.609375,-0.3867188 0.9609375,-0.3867188 0.4804687,0 0.4804687,0.4804688 0.4804687,0.6328125 0,0.1054688 0,0.2226563 -0.1054687,0.6679688 l -0.2109375,0.796875 c -0.28125,1.16015621 -0.3515625,1.42968746 -0.3515625,1.47656246 0,0.1171875 0.070312,0.2578125 0.2695312,0.2578125 0.1289063,0 0.2578125,-0.0703125 0.328125,-0.1875 0.023437,-0.046875 0.09375,-0.33984375 0.140625,-0.515625 L 4.2525581,-1.4055734 c 0.09375,-0.421875 0.2695313,-1.078125 0.2695313,-1.1484375 0.023437,-0.058594 0.2460937,-0.4804688 0.5742187,-0.796875 0.2578125,-0.2460938 0.5976563,-0.3867188 0.9492188,-0.3867188 0.4804687,0 0.4804687,0.4804688 0.4804687,0.6328125 0,0.5390625 -0.421875,1.640625 -0.515625,1.9101563 -0.1171875,0.28124996 -0.1523437,0.37499996 -0.1523437,0.53906246 0,0.48046875 0.375,0.75 0.7734375,0.75 0.8671875,0 1.2070312,-1.27734376 1.2070312,-1.37109376 0,-0.046875 -0.023437,-0.1171875 -0.1171875,-0.1171875 -0.09375,0 -0.1054687,0.046875 -0.140625,0.1640625 -0.2226562,0.76171876 -0.5976562,1.10156251 -0.9257812,1.10156251 -0.058594,0 -0.2226563,0 -0.2226563,-0.28125 0,-0.22265625 0.09375,-0.45703125 0.1640625,-0.65625001 0.1757813,-0.4570312 0.5390625,-1.40625 0.5390625,-1.9101562 0,-0.796875 -0.5976562,-0.984375 -1.0664062,-0.984375 -0.8554688,0 -1.3242188,0.6328125 -1.4765625,0.8554687 -0.09375,-0.7382812 -0.703125,-0.8554687 -1.078125,-0.8554687 -0.8320313,0 -1.2773438,0.5859375 -1.4179688,0.7734375 -0.058594,-0.4804688 -0.421875,-0.7734375 -0.8671875,-0.7734375 -0.37499997,0 -0.56249997,0.28125 -0.69140622,0.515625 -0.15234375,0.3164062 -0.28125,0.8320312 -0.28125,0.8671875 0,0.082031 0.0703125,0.1054687 0.12890625,0.1054687 0.09375,0 0.1171875,-0.046875 0.1640625,-0.2226562 0.1640625,-0.7148438 0.3515625,-1.0429688 0.65624997,-1.0429688 0.2695313,0 0.2695313,0.28125 0.2695313,0.421875 0,0.1875 -0.070312,0.46875 -0.1171875,0.703125 -0.070312,0.234375 -0.1523438,0.609375 -0.1992188,0.7265625 l -0.35156247,1.46484376 c -0.0703125,0.2109375 -0.0703125,0.234375 -0.0703125,0.2578125 0,0.1171875 0.0820313,0.2578125 0.28124997,0.2578125 0.1289063,0 0.2578125,-0.0703125 0.328125,-0.1875 0.023437,-0.046875 0.09375,-0.33984375 0.140625,-0.515625 z m 0,0"
         style="fill:#000000;fill-opacity:1;fill-rule:nonzero;stroke:none" />
      <path
         id="path23"
         d="m 17.028925,-2.9641672 c 0.117188,0 0.292969,0 0.292969,-0.1875 0,-0.1992187 -0.199219,-0.1992187 -0.328125,-0.1992187 h -5.472656 c -0.140625,0 -0.328125,0 -0.328125,0.1992187 0,0.1875 0.175781,0.1875 0.292969,0.1875 z m -0.03516,1.828125 c 0.128906,0 0.328125,0 0.328125,-0.1992187 0,-0.1875 -0.175781,-0.1875 -0.292969,-0.1875 h -5.542968 c -0.117188,0 -0.292969,0 -0.292969,0.1875 0,0.1992187 0.1875,0.1992187 0.328125,0.1992187 z m 0,0"
         style="fill:#000000;fill-opacity:1;fill-rule:nonzero;stroke:none" />
      <path
         id="path24"
         d="m 23.817011,-5.4251047 c 0.09375,-0.3398437 0.117188,-0.421875 0.84375,-0.421875 0.164063,0 0.257813,0 0.257813,-0.1640625 0,-0.09375 -0.09375,-0.1054687 -0.140625,-0.1054687 -0.1875,0 -0.386719,0.011719 -0.574219,0.011719 -0.199219,0 -0.539062,0.011719 -0.609375,0.011719 -0.199219,0 -0.410156,-0.011719 -0.609375,-0.011719 -0.199219,0 -0.410156,-0.011719 -0.585937,-0.011719 -0.05859,0 -0.175782,0 -0.175782,0.1523437 0,0.1171875 0.08203,0.1171875 0.257813,0.1171875 0.199219,0 0.410156,0 0.585937,0.070312 0.01172,0.035156 0.01172,0.070312 0.01172,0.082031 0,0.035156 -0.01172,0.140625 -0.02344,0.1757812 l -1.21875,4.83984376 c -0.07031,0.31640625 -0.09375,0.3984375 -0.785157,0.3984375 -0.199218,0 -0.292968,0 -0.292968,0.1640625 0,0.046875 0.01172,0.1171875025 0.128906,0.1171875025 0.1875,0 0.375,-0.0234375025 0.574219,-0.0234375025 0.199218,0 0.410156,0 0.609375,0 0.210937,0 0.410156,0 0.621093,0 0.1875,0 0.398438,0.0234375025 0.585938,0.0234375025 0.05859,0 0.175781,0 0.175781,-0.1640625025 0,-0.1171875 -0.09375,-0.1171875 -0.269531,-0.1171875 -0.339844,0 -0.597656,0 -0.597656,-0.15234375 0,-0.0703125 0,-0.0820312 0.03516,-0.2109375 z m 0,0"
         style="fill:#000000;fill-opacity:1;fill-rule:nonzero;stroke:none" />
    </g>
    <g
       id="g24"
       aria-label="(0,0)"
       transform="matrix(1.3333333,0,0,1.3333333,349.72128,26.674)">
      <path
         id="path25"
         d="m 3.0596259,2.1341484 c 0,-0.046875 -0.023437,-0.070312 -0.082031,-0.1289062 -1.1601563,-1.06640626 -1.5117188,-2.67187501 -1.5117188,-4.2421875 0,-1.3945313 0.2695313,-3.0820313 1.5351563,-4.2773438 0.035156,-0.035156 0.058594,-0.070312 0.058594,-0.1054687 0,-0.070312 -0.046875,-0.1054688 -0.1054687,-0.1054688 -0.1054688,0 -0.9140625,0.6445313 -1.40625,1.6289063 -0.421875,0.8554687 -0.64453126,1.78125 -0.64453126,2.8476562 0,0.6445313 0.0820313,1.66406254 0.57421876,2.73046879 0.5273437,1.10156251 1.3710937,1.74609371 1.4765625,1.74609371 0.058594,0 0.1054687,-0.035156 0.1054682,-0.09375 z m 4.7607422,-5.0039062 c 0,-0.5976563 -0.023437,-1.3710938 -0.3398437,-2.0390625 -0.3984375,-0.84375 -1.078125,-1.0546875 -1.59375,-1.0546875 -0.5390625,0 -1.21875,0.2109375 -1.6171875,1.0664062 -0.2929688,0.6210938 -0.328125,1.3476563 -0.328125,2.0273438 0,0.5859375 0.011719,1.453125 0.3984375,2.16796874 0.421875,0.76171875 1.125,0.90234375 1.5351562,0.90234375 0.5859375,0 1.2421875,-0.2578125 1.6171875,-1.078125 0.2695313,-0.59765629 0.328125,-1.27734379 0.328125,-1.99218749 z m -1.9335937,2.84765624 c -0.2695313,0 -0.9140625,-0.12890625 -1.0898438,-1.13671874 -0.09375,-0.5390625 -0.09375,-1.3007813 -0.09375,-1.8164063 0,-0.609375 0,-1.3125 0.1171875,-1.8164062 0.1757813,-0.796875 0.75,-0.9492188 1.0546875,-0.9492188 0.3398438,0 0.9023438,0.1757813 1.078125,1.0078125 0.09375,0.4921875 0.09375,1.1953125 0.09375,1.7578125 0,0.5507813 0,1.3125 -0.09375,1.8398438 -0.1875,1.01953124 -0.84375,1.11328124 -1.0664062,1.11328124 z m 0,0"
         style="fill:#000000;fill-opacity:1;fill-rule:nonzero;stroke:none" />
      <path
         id="path26"
         d="m 9.8213447,-0.13928906 c 0,0.29296875 0,1.03125 -0.65625,1.66406246 -0.058594,0.058594 -0.058594,0.058594 -0.058594,0.09375 0,0.070312 0.058594,0.1171875 0.1171875,0.1171875 0.09375,0 0.8203128,-0.703125 0.8203128,-1.75781246 0,-0.55078125 -0.1875003,-0.94921875 -0.574219,-0.94921875 -0.3046875,0 -0.4921875,0.234375 -0.4921875,0.4921875 0,0.24609375 0.1875,0.48046875 0.4921875,0.48046875 0.1289062,0 0.2695312,-0.046875 0.3515627,-0.140625 z m 0,0"
         style="fill:#000000;fill-opacity:1;fill-rule:nonzero;stroke:none" />
      <path
         id="path27"
         d="m 16.530329,-2.8697578 c 0,-0.5976563 -0.02344,-1.3710938 -0.339844,-2.0390625 -0.398437,-0.84375 -1.078125,-1.0546875 -1.59375,-1.0546875 -0.539062,0 -1.21875,0.2109375 -1.617187,1.0664062 -0.292969,0.6210938 -0.328125,1.3476563 -0.328125,2.0273438 0,0.5859375 0.01172,1.453125 0.398437,2.16796874 0.421875,0.76171875 1.125,0.90234375 1.535157,0.90234375 0.585937,0 1.242187,-0.2578125 1.617187,-1.078125 0.269531,-0.59765629 0.328125,-1.27734379 0.328125,-1.99218749 z m -1.933594,2.84765624 c -0.269531,0 -0.914062,-0.12890625 -1.089843,-1.13671874 -0.09375,-0.5390625 -0.09375,-1.3007813 -0.09375,-1.8164063 0,-0.609375 0,-1.3125 0.117187,-1.8164062 0.175781,-0.796875 0.75,-0.9492188 1.054688,-0.9492188 0.339843,0 0.902343,0.1757813 1.078125,1.0078125 0.09375,0.4921875 0.09375,1.1953125 0.09375,1.7578125 0,0.5507813 0,1.3125 -0.09375,1.8398438 -0.1875,1.01953124 -0.84375,1.11328124 -1.066407,1.11328124 z m 4.962891,-2.22656254 c 0,-0.7382812 -0.105469,-1.7226562 -0.574219,-2.71875 -0.527344,-1.1015625 -1.359375,-1.7578125 -1.464844,-1.7578125 -0.09375,0 -0.117187,0.070312 -0.117187,0.1054688 0,0.035156 0.02344,0.070312 0.08203,0.1289062 0.527344,0.46875 1.511719,1.6875 1.511719,4.2421875 0,1.27734379 -0.234375,3.07031254 -1.535156,4.2773438 -0.02344,0.023437 -0.05859,0.058594 -0.05859,0.1054687 0,0.023437 0.02344,0.09375 0.117187,0.09375 0.105469,0 0.914063,-0.6445312 1.394532,-1.61718746 0.433593,-0.85546875 0.644531,-1.78125004 0.644531,-2.85937504 z m 0,0"
         style="fill:#000000;fill-opacity:1;fill-rule:nonzero;stroke:none" />
    </g>
    <g
       id="g27"
       aria-label="(2,1)"
       transform="matrix(1.3333333,0,0,1.3333333,349.72128,102.26549)">
      <path
         id="path28"
         d="m 3.0596259,2.1329113 c 0,-0.046875 -0.023437,-0.070312 -0.082031,-0.1289063 -1.1601565,-1.06640625 -1.511719,-2.671875 -1.511719,-4.2421875 0,-1.3945312 0.2695313,-3.0820312 1.5351563,-4.2773437 0.035156,-0.035156 0.058594,-0.070312 0.058594,-0.1054688 0,-0.070312 -0.046875,-0.1054687 -0.1054687,-0.1054687 -0.1054688,0 -0.9140625,0.6445312 -1.40625,1.6289062 -0.421875,0.8554688 -0.64453126,1.78125 -0.64453126,2.8476563 0,0.6445312 0.0820313,1.66406245 0.57421876,2.7304687 0.5273437,1.1015625 1.3710937,1.7460938 1.4765625,1.7460938 0.058594,0 0.1054687,-0.035156 0.1054684,-0.09375 z M 7.7148994,-1.5819325 H 7.4688056 c -0.023437,0.1171875 -0.09375,0.64453125 -0.2109375,0.78515625 -0.046875,0.0820313 -0.6679687,0.0820313 -0.84375,0.0820313 h -1.59375 L 5.6992744,-1.5584949 c 1.4765625,-1.2773438 2.015625,-1.7460938 2.015625,-2.6601562 0,-1.03125 -0.84375,-1.7460938 -1.9453125,-1.7460938 -1.03125,0 -1.734375,0.8085938 -1.734375,1.6289063 0,0.4453125 0.3867187,0.4921875 0.46875,0.4921875 0.1992187,0 0.46875,-0.140625 0.46875,-0.46875 0,-0.2695313 -0.1875,-0.46875 -0.46875,-0.46875 -0.046875,0 -0.070312,0 -0.1054688,0.011719 0.2109375,-0.6328125 0.7851563,-0.9257812 1.265625,-0.9257812 0.9140625,0 1.2304688,0.8554687 1.2304688,1.4765625 0,0.9140625 -0.6914063,1.6523437 -1.125,2.1210937 l -1.640625,1.7695312 c -0.09375,0.10546875 -0.09375,0.1171875 -0.09375,0.328125 h 3.4335937 z m 0,0"
         style="fill:#000000;fill-opacity:1;fill-rule:nonzero;stroke:none" />
      <path
         id="path29"
         d="m 9.8213447,-0.14052625 c 0,0.29296875 0,1.03125 -0.65625,1.66406255 -0.058594,0.058594 -0.058594,0.058594 -0.058594,0.09375 0,0.070312 0.058594,0.1171875 0.1171875,0.1171875 0.09375,0 0.8203128,-0.703125 0.8203128,-1.75781255 0,-0.55078125 -0.1875003,-0.94921875 -0.574219,-0.94921875 -0.3046875,0 -0.4921875,0.234375 -0.4921875,0.4921875 0,0.24609375 0.1875,0.48046875 0.4921875,0.48046875 0.1289062,0 0.2695312,-0.046875 0.3515627,-0.140625 z m 0,0"
         style="fill:#000000;fill-opacity:1;fill-rule:nonzero;stroke:none" />
      <path
         id="path30"
         d="m 15.01861,-5.73037 c 0,-0.2226562 -0.01172,-0.234375 -0.234375,-0.234375 -0.5625,0.5625 -1.382812,0.5625 -1.664062,0.5625 v 0.28125 c 0.175781,0 0.714844,0 1.207031,-0.234375 v 4.640625 c 0,0.328125 -0.03516,0.43359375 -0.867187,0.43359375 h -0.28125 v 0.28125 c 0.316406,-0.0234375 1.113281,-0.0234375 1.488281,-0.0234375 0.363281,0 1.171875,0 1.488281,0.0234375 v -0.28125 h -0.28125 c -0.832031,0 -0.855469,-0.10546875 -0.855469,-0.43359375 z m 4.541016,3.4804688 c 0,-0.7382813 -0.105469,-1.7226563 -0.574219,-2.71875 -0.527344,-1.1015625 -1.359375,-1.7578125 -1.464844,-1.7578125 -0.09375,0 -0.117187,0.070312 -0.117187,0.1054687 0,0.035156 0.02344,0.070312 0.08203,0.1289063 0.527344,0.46875 1.511719,1.6875 1.511719,4.2421875 0,1.2773437 -0.234375,3.07031245 -1.535156,4.2773437 -0.02344,0.023437 -0.05859,0.058594 -0.05859,0.1054688 0,0.023437 0.02344,0.09375 0.117187,0.09375 0.105469,0 0.914063,-0.6445313 1.394532,-1.61718755 0.433593,-0.85546875 0.644531,-1.78124995 0.644531,-2.85937495 z m 0,0"
         style="fill:#000000;fill-opacity:1;fill-rule:nonzero;stroke:none" />
    </g>
    <g
       id="g30"
       aria-label="(1,2)"
       transform="matrix(1.3333333,0,0,1.3333333,349.72128,177.85696)">
      <path
         id="path31"
         d="m 3.0596259,2.1316941 c 0,-0.046875 -0.023437,-0.070312 -0.082031,-0.1289063 -1.1601563,-1.06640624 -1.5117188,-2.67187499 -1.5117188,-4.2421875 0,-1.3945312 0.2695313,-3.0820312 1.5351563,-4.2773437 0.035156,-0.035156 0.058594,-0.070312 0.058594,-0.1054688 0,-0.070312 -0.046875,-0.1054687 -0.1054687,-0.1054687 -0.1054688,0 -0.9140625,0.6445312 -1.40625,1.6289062 -0.421875,0.8554688 -0.64453126,1.78125 -0.64453126,2.8476563 0,0.6445312 0.0820313,1.66406246 0.57421876,2.73046871 0.5273437,1.10156249 1.3710937,1.74609379 1.4765625,1.74609379 0.058594,0 0.1054687,-0.035156 0.1054682,-0.09375 z m 3.2490235,-7.8632813 c 0,-0.2226562 -0.011719,-0.234375 -0.234375,-0.234375 -0.5625,0.5625 -1.3828125,0.5625 -1.6640625,0.5625 v 0.28125 c 0.1757812,0 0.7148437,0 1.2070312,-0.234375 v 4.64062501 c 0,0.328125 -0.035156,0.43359375 -0.8671875,0.43359375 h -0.28125 v 0.28125 c 0.3164063,-0.0234375 1.1132813,-0.0234375 1.4882813,-0.0234375 0.3632812,0 1.171875,0 1.4882812,0.0234375 v -0.28125 h -0.28125 c -0.8320312,0 -0.8554687,-0.10546875 -0.8554687,-0.43359375 z m 0,0"
         style="fill:#000000;fill-opacity:1;fill-rule:nonzero;stroke:none" />
      <path
         id="path32"
         d="m 9.8213447,-0.14174344 c 0,0.29296875 0,1.03125 -0.65625,1.66406254 -0.058594,0.058594 -0.058594,0.058594 -0.058594,0.09375 0,0.070312 0.058594,0.1171875 0.1171875,0.1171875 0.09375,0 0.8203128,-0.703125 0.8203128,-1.75781254 0,-0.55078125 -0.1875003,-0.94921875 -0.574219,-0.94921875 -0.3046875,0 -0.4921875,0.234375 -0.4921875,0.4921875 0,0.24609375 0.1875,0.48046875 0.4921875,0.48046875 0.1289062,0 0.2695312,-0.046875 0.3515627,-0.140625 z m 0,0"
         style="fill:#000000;fill-opacity:1;fill-rule:nonzero;stroke:none" />
      <path
         id="path33"
         d="m 16.42486,-1.5831497 h -0.246093 c -0.02344,0.1171875 -0.09375,0.64453126 -0.210938,0.78515626 -0.04687,0.0820313 -0.667969,0.0820313 -0.84375,0.0820313 h -1.59375 l 0.878906,-0.84375006 c 1.476563,-1.2773437 2.015625,-1.7460937 2.015625,-2.6601562 0,-1.03125 -0.84375,-1.7460937 -1.945312,-1.7460937 -1.03125,0 -1.734375,0.8085937 -1.734375,1.6289062 0,0.4453125 0.386719,0.4921875 0.46875,0.4921875 0.199219,0 0.46875,-0.140625 0.46875,-0.46875 0,-0.2695312 -0.1875,-0.46875 -0.46875,-0.46875 -0.04687,0 -0.07031,0 -0.105469,0.011719 0.210938,-0.6328125 0.785156,-0.9257813 1.265625,-0.9257813 0.914063,0 1.230469,0.8554688 1.230469,1.4765625 0,0.9140625 -0.691406,1.6523437 -1.125,2.1210937 l -1.640625,1.76953131 c -0.09375,0.10546875 -0.09375,0.1171875 -0.09375,0.328125 h 3.433594 z m 3.134766,-0.6679687 c 0,-0.7382813 -0.105469,-1.7226563 -0.574219,-2.71875 -0.527344,-1.1015625 -1.359375,-1.7578125 -1.464844,-1.7578125 -0.09375,0 -0.117187,0.070312 -0.117187,0.1054687 0,0.035156 0.02344,0.070312 0.08203,0.1289063 0.527344,0.46875 1.511719,1.6875 1.511719,4.2421875 0,1.27734371 -0.234375,3.07031246 -1.535156,4.2773437 -0.02344,0.023437 -0.05859,0.058594 -0.05859,0.1054688 0,0.023437 0.02344,0.09375 0.117187,0.09375 0.105469,0 0.914063,-0.6445313 1.394532,-1.61718754 0.433593,-0.85546875 0.644531,-1.78124996 0.644531,-2.85937496 z m 0,0"
         style="fill:#000000;fill-opacity:1;fill-rule:nonzero;stroke:none" />
    </g>
    <g
       id="g33"
       aria-label="(1,1)"
       transform="matrix(1.3333333,0,0,1.3333333,349.72128,253.44845)">
      <path
         id="path34"
         d="m 3.0596259,2.1333866 c 0,-0.046875 -0.023437,-0.070312 -0.082031,-0.1289063 -1.1601563,-1.06640624 -1.5117188,-2.67187499 -1.5117188,-4.2421875 0,-1.3945312 0.2695313,-3.0820312 1.5351563,-4.2773437 0.035156,-0.035156 0.058594,-0.070312 0.058594,-0.1054688 0,-0.070312 -0.046875,-0.1054687 -0.1054687,-0.1054687 -0.1054688,0 -0.9140625,0.6445312 -1.40625,1.6289062 -0.421875,0.8554688 -0.64453126,1.78125 -0.64453126,2.8476563 0,0.6445312 0.0820313,1.66406246 0.57421876,2.73046871 0.5273437,1.10156249 1.3710937,1.74609379 1.4765625,1.74609379 0.058594,0 0.1054687,-0.035156 0.1054682,-0.09375 z m 3.2490235,-7.8632813 c 0,-0.2226562 -0.011719,-0.234375 -0.234375,-0.234375 -0.5625,0.5625 -1.3828125,0.5625 -1.6640625,0.5625 v 0.28125 c 0.1757812,0 0.7148437,0 1.2070312,-0.234375 v 4.64062501 c 0,0.328125 -0.035156,0.43359375 -0.8671875,0.43359375 h -0.28125 V 5.740625e-4 C 4.7852119,-0.02286344 5.5820869,-0.02286344 5.9570869,-0.02286344 c 0.3632812,0 1.171875,0 1.4882812,0.0234375025 V -0.28067594 h -0.28125 c -0.8320312,0 -0.8554687,-0.10546875 -0.8554687,-0.43359375 z m 0,0"
         style="fill:#000000;fill-opacity:1;fill-rule:nonzero;stroke:none" />
      <path
         id="path35"
         d="m 9.8213447,-0.14005094 c 0,0.29296875 0,1.03125 -0.65625,1.66406254 -0.058594,0.058594 -0.058594,0.058594 -0.058594,0.09375 0,0.070312 0.058594,0.1171875 0.1171875,0.1171875 0.09375,0 0.8203128,-0.703125 0.8203128,-1.75781254 0,-0.55078125 -0.1875003,-0.94921875 -0.574219,-0.94921875 -0.3046875,0 -0.4921875,0.234375 -0.4921875,0.4921875 0,0.24609375 0.1875,0.4804687525 0.4921875,0.4804687525 0.1289062,0 0.2695312,-0.0468750025 0.3515627,-0.1406250025 z m 0,0"
         style="fill:#000000;fill-opacity:1;fill-rule:nonzero;stroke:none" />
      <path
         id="path36"
         d="m 15.01861,-5.7298947 c 0,-0.2226562 -0.01172,-0.234375 -0.234375,-0.234375 -0.5625,0.5625 -1.382812,0.5625 -1.664062,0.5625 v 0.28125 c 0.175781,0 0.714844,0 1.207031,-0.234375 v 4.64062501 c 0,0.328125 -0.03516,0.43359375 -0.867187,0.43359375 h -0.28125 V 5.740625e-4 C 13.495173,-0.02286344 14.292048,-0.02286344 14.667048,-0.02286344 c 0.363281,0 1.171875,0 1.488281,0.0234375025 V -0.28067594 h -0.28125 c -0.832031,0 -0.855469,-0.10546875 -0.855469,-0.43359375 z m 4.541016,3.4804688 c 0,-0.7382813 -0.105469,-1.7226563 -0.574219,-2.71875 -0.527344,-1.1015625 -1.359375,-1.7578125 -1.464844,-1.7578125 -0.09375,0 -0.117187,0.070312 -0.117187,0.1054687 0,0.035156 0.02344,0.070312 0.08203,0.1289063 0.527344,0.46875 1.511719,1.6875 1.511719,4.2421875 0,1.27734371 -0.234375,3.07031246 -1.535156,4.2773437 -0.02344,0.023437 -0.05859,0.058594 -0.05859,0.1054688 0,0.023437 0.02344,0.09375 0.117187,0.09375 0.105469,0 0.914063,-0.6445313 1.394532,-1.61718754 0.433593,-0.85546875 0.644531,-1.78124996 0.644531,-2.85937496 z m 0,0"
         style="fill:#000000;fill-opacity:1;fill-rule:nonzero;stroke:none" />
    </g>
    <path
       id="path37"
       d="M 176.67622,58.89249 241.36201,80.4587"
       style="fill:none;stroke:#000000;stroke-width:0.79701;stroke-linecap:butt;stroke-linejoin:miter;stroke-miterlimit:10;stroke-dasharray:none;stroke-opacity:1"
       transform="matrix(1.3333333,0,0,-1.3333333,23.21216,137.0724)" />
    <path
       id="path38"
       d="m 6.5634862,-0.00144687 v -0.28125 H 6.3525487 c -0.6914062,0 -0.703125,-0.09375 -0.703125,-0.421875 V -5.4155094 c 0,-0.328125 0.011719,-0.4335937 0.703125,-0.4335937 h 0.2109375 v -0.2695313 c -0.3984375,0.023437 -0.9023437,0.023437 -1.3125,0.023437 -0.421875,0 -0.9257812,0 -1.3242187,-0.023437 v 0.2695313 H 4.137705 c 0.6914062,0 0.703125,0.1054687 0.703125,0.4335937 v 2.0859375 H 2.0634862 v -2.0859375 c 0,-0.328125 0.011719,-0.4335937 0.703125,-0.4335937 h 0.2109375 v -0.2695313 c -0.3984375,0.023437 -0.9023437,0.023437 -1.3125,0.023437 -0.421875,0 -0.9257812,0 -1.3242187,-0.023437 v 0.2695313 h 0.2109375 c 0.6914062,0 0.703125,0.1054687 0.703125,0.4335937 v 4.71093753 c 0,0.328125 -0.011719,0.421875 -0.703125,0.421875 H 0.34083 v 0.28125 c 0.3984375,-0.0234375 0.9023437,-0.0234375 1.3242187,-0.0234375 0.4101563,0 0.9140625,0 1.3125,0.0234375 v -0.28125 H 2.7666112 c -0.6914062,0 -0.703125,-0.09375 -0.703125,-0.421875 V -3.0483219 H 4.84083 v 2.34375003 c 0,0.328125 -0.011719,0.421875 -0.703125,0.421875 H 3.9267675 v 0.28125 c 0.3984375,-0.0234375 0.9023437,-0.0234375 1.3242187,-0.0234375 0.4101563,0 0.9140625,0 1.3125,0.0234375 z m 0,0"
       style="fill:#000000;fill-opacity:1;fill-rule:nonzero;stroke:none"
       aria-label="H"
       transform="matrix(1.3333333,0,0,1.3333333,297.29556,39.212867)" />
    <path
       id="path39"
       d="M 176.67622,54.49474 241.36201,32.92853"
       style="fill:none;stroke:#000000;stroke-width:0.79701;stroke-linecap:butt;stroke-linejoin:miter;stroke-miterlimit:10;stroke-dasharray:none;stroke-opacity:1"
       transform="matrix(1.3333333,0,0,-1.3333333,23.21216,137.0724)" />
    <path
       id="path40"
       d="m 6.5149381,-3.0120219 c 0,-1.6992187 -1.2421875,-3.1054687 -2.8242187,-3.1054687 H 0.36259437 v 0.2695312 h 0.19921875 c 0.69140628,0 0.71484378,0.1054688 0.71484378,0.4335938 v 4.71093748 c 0,0.328125 -0.023437,0.421875 -0.71484378,0.421875 H 0.36259437 V -3.03125e-4 H 3.6907194 c 1.5585937,0 2.8242187,-1.324218775 2.8242187,-3.011718775 z m -0.890625,0 c 0,0.3632813 0,1.3125 -0.4921875,1.9335938 -0.4570312,0.60937498 -1.1132812,0.79687498 -1.6757812,0.79687498 H 2.4954069 c -0.421875,0 -0.4453125,-0.0585938 -0.4453125,-0.36328125 V -5.4729594 c 0,-0.3046875 0.023437,-0.375 0.4453125,-0.375 h 0.9609375 c 0.8671875,0 1.40625,0.4570313 1.640625,0.7851563 0.3984375,0.515625 0.5273437,1.1601562 0.5273437,2.0507812 z m 0,0"
       style="fill:#000000;fill-opacity:1;fill-rule:nonzero;stroke:none"
       aria-label="D"
       transform="matrix(1.3333333,0,0,1.3333333,297.21185,91.914467)" />
    <path
       id="path41"
       d="m 176.67622,-54.49474 64.68579,21.56621"
       style="fill:none;stroke:#000000;stroke-width:0.79701;stroke-linecap:butt;stroke-linejoin:miter;stroke-miterlimit:10;stroke-dasharray:none;stroke-opacity:1"
       transform="matrix(1.3333333,0,0,-1.3333333,23.21216,137.0724)" />
    <path
       id="path42"
       d="M 6.5634862,-9.715625e-4 V -0.28222156 H 6.3525487 c -0.6914062,0 -0.703125,-0.09375 -0.703125,-0.421875 V -5.4150341 c 0,-0.328125 0.011719,-0.4335937 0.703125,-0.4335937 h 0.2109375 v -0.2695313 c -0.3984375,0.023437 -0.9023437,0.023437 -1.3125,0.023437 -0.421875,0 -0.9257812,0 -1.3242187,-0.023437 v 0.2695313 H 4.137705 c 0.6914062,0 0.703125,0.1054687 0.703125,0.4335937 v 2.0859375 H 2.0634862 v -2.0859375 c 0,-0.328125 0.011719,-0.4335937 0.703125,-0.4335937 h 0.2109375 v -0.2695313 c -0.3984375,0.023437 -0.9023437,0.023437 -1.3125,0.023437 -0.421875,0 -0.9257812,0 -1.3242187,-0.023437 v 0.2695313 h 0.2109375 c 0.6914062,0 0.703125,0.1054687 0.703125,0.4335937 v 4.71093754 c 0,0.328125 -0.011719,0.421875 -0.703125,0.421875 H 0.34083 V -9.715625e-4 C 0.7392675,-0.02440906 1.2431737,-0.02440906 1.6650487,-0.02440906 c 0.4101563,0 0.9140625,0 1.3125,0.0234374975 V -0.28222156 H 2.7666112 c -0.6914062,0 -0.703125,-0.09375 -0.703125,-0.421875 V -3.0478466 H 4.84083 v 2.34375004 c 0,0.328125 -0.011719,0.421875 -0.703125,0.421875 H 3.9267675 V -9.715625e-4 C 4.325205,-0.02440906 4.8291112,-0.02440906 5.2509862,-0.02440906 c 0.4101563,0 0.9140625,0 1.3125,0.0234374975 z m 0,0"
       style="fill:#000000;fill-opacity:1;fill-rule:nonzero;stroke:none"
       aria-label="H"
       transform="matrix(1.3333333,0,0,1.3333333,297.29556,190.39583)" />
    <path
       id="path43"
       d="M 176.67622,-58.89249 241.36201,-80.4587"
       style="fill:none;stroke:#000000;stroke-width:0.79701;stroke-linecap:butt;stroke-linejoin:miter;stroke-miterlimit:10;stroke-dasharray:none;stroke-opacity:1"
       transform="matrix(1.3333333,0,0,-1.3333333,23.21216,137.0724)" />
    <path
       id="path44"
       d="m 6.5149381,-3.0115466 c 0,-1.6992187 -1.2421875,-3.1054687 -2.8242187,-3.1054687 H 0.36259437 v 0.2695312 h 0.19921875 c 0.69140628,0 0.71484378,0.1054688 0.71484378,0.4335938 v 4.71093749 c 0,0.328125 -0.023437,0.421875 -0.71484378,0.421875 H 0.36259437 V 1.721875e-4 H 3.6907194 c 1.5585937,0 2.8242187,-1.3242187875 2.8242187,-3.0117187875 z m -0.890625,0 c 0,0.3632813 0,1.3125 -0.4921875,1.9335938 -0.4570312,0.60937499 -1.1132812,0.79687499 -1.6757812,0.79687499 H 2.4954069 c -0.421875,0 -0.4453125,-0.0585938 -0.4453125,-0.36328125 V -5.4724841 c 0,-0.3046875 0.023437,-0.375 0.4453125,-0.375 h 0.9609375 c 0.8671875,0 1.40625,0.4570313 1.640625,0.7851563 0.3984375,0.515625 0.5273437,1.1601562 0.5273437,2.0507812 z m 0,0"
       style="fill:#000000;fill-opacity:1;fill-rule:nonzero;stroke:none"
       aria-label="D"
       transform="matrix(1.3333333,0,0,1.3333333,297.21185,243.09743)" />
  </g>
</svg>
