<?xml version="1.0" encoding="UTF-8" standalone="no"?>
<!-- Created with Inkscape (http://www.inkscape.org/) -->

<svg
   version="1.1"
   id="svg1"
   width="356.93332"
   height="357.29333"
   viewBox="0 0 356.93332 357.29333"
   xmlns="http://www.w3.org/2000/svg"
   xmlns:svg="http://www.w3.org/2000/svg">
  <defs
     id="defs1" />
  <g
     id="g1">
    <path
       id="path1"
       d="M 7.24733,0 C 7.24733,4.00262 4.00262,7.24733 0,7.24733 -4.00262,7.24733 -7.24733,4.00262 -7.24733,0 c 0,-4.00262 3.24471,-7.24733 7.24733,-7.24733 4.00262,0 7.24733,3.24471 7.24733,7.24733 z"
       style="fill:none;stroke:#000000;stroke-width:0.3985;stroke-linecap:butt;stroke-linejoin:miter;stroke-miterlimit:10;stroke-dasharray:none;stroke-opacity:1"
       transform="matrix(1.3333333,0,0,-1.3333333,23.21216,167.30595)" />
    <path
       id="path2"
       d="m 6.9265687,-5.1562612 c 0.082031,-0.3632813 0.2578125,-0.65625 0.9492188,-0.6914063 0.058594,0 0.1640625,-0.011719 0.1640625,-0.1640625 0,-0.070312 -0.046875,-0.1054687 -0.1289063,-0.1054687 -0.1875,0 -0.6914062,0.023437 -0.890625,0.023437 -0.2226562,0 -0.2460937,0 -0.4570312,-0.011719 -0.140625,0 -0.328125,-0.011719 -0.46875,-0.011719 -0.035156,0 -0.1640625,0 -0.1640625,0.1523437 0,0.1171875 0.1171875,0.1171875 0.1640625,0.1171875 0.3398437,0.011719 0.5976562,0.09375 0.5976562,0.3867188 0,0.046875 -0.023437,0.1757812 -0.023437,0.1757812 L 5.6609437,-1.2890737 3.6101625,-5.9414175 C 3.5281312,-6.1171987 3.5281312,-6.1171987 3.3171937,-6.1171987 H 2.1218812 c -0.1640625,0 -0.2695312,0 -0.2695312,0.1523437 0,0.1171875 0.09375,0.1171875 0.2695312,0.1171875 0.046875,0 0.375,0 0.5976563,0.058594 L 1.5125062,-0.94923 c -0.1171875,0.43359375 -0.3398437,0.64453125 -0.96093745,0.66796875 -0.0351563,0 -0.15234375,0.0117188 -0.15234375,0.1640625 0,0.0234375 0,0.1171875 0.1171875,0.1171875 0.1171875,0 0.33984375,-0.01171875 0.45703125,-0.0234375 0.14062495,0 0.15234375,0 0.44531245,0 0.2226563,0 0.2460938,0 0.4570313,0 0.140625,0 0.328125,0.0234375 0.46875,0.0234375 0.035156,0 0.1523437,0 0.1523437,-0.1640625 0,-0.10546875 -0.09375,-0.1171875 -0.1757812,-0.1171875 -0.421875,0 -0.5859375,-0.140625 -0.5859375,-0.38671875 0,-0.0585938 0.011719,-0.0703125 0.035156,-0.1875 l 1.1835938,-4.734375 2.4023437,5.42578125 c 0.058594,0.140625 0.070312,0.1640625 0.1523438,0.1640625 0.1171875,0 0.1289062,-0.03515625 0.1640625,-0.1875 z m 0,0"
       style="fill:#000000;fill-opacity:1;fill-rule:nonzero;stroke:none"
       aria-label="N"
       transform="matrix(1.3333333,0,0,1.3333333,17.6552,171.39064)" />
    <path
       id="path3"
       d="m 6.6437378,-3.03543 c 0,-1.828125 -1.3945312,-3.28125 -3.0703125,-3.28125 -1.6757812,0 -3.05859374,1.453125 -3.05859374,3.28125 0,1.8164062 1.39453124,3.234375 3.05859374,3.234375 1.6757813,0 3.0703125,-1.4179688 3.0703125,-3.234375 z M 5.7296753,-3.176055 c 0,2.3203125 -1.2539062,3.10546875 -2.15625,3.10546875 -0.9023437,0 -2.1445312,-0.78515625 -2.1445312,-3.10546875 0,-2.1796875 1.2773437,-2.8945313 2.1445312,-2.8945313 0.8671875,0 2.15625,0.7148438 2.15625,2.8945313 z m 7.9042967,-0.4101563 v -0.28125 c -0.363281,0.035156 -0.386719,0.035156 -0.679687,0.035156 -0.339844,0 -0.46875,0 -0.820313,-0.035156 v 0.28125 c 0.386719,0.011719 0.503906,0.2460938 0.503906,0.4335938 0,0.082031 -0.01172,0.140625 -0.03516,0.1992187 l -0.832031,2.25000005 -0.902344,-2.46093755 c -0.04687,-0.1171875 -0.04687,-0.140625 -0.04687,-0.1757812 0,-0.2226563 0.28125,-0.2460938 0.515625,-0.2460938 v -0.28125 c -0.410156,0.035156 -0.785156,0.035156 -0.925781,0.035156 -0.28125,0 -0.5390626,0 -0.8203126,-0.035156 v 0.28125 c 0.28125,0 0.4570316,0.011719 0.5624996,0.1289063 0.08203,0.1054687 0.199219,0.4570312 0.199219,0.4921875 L 10.305847,-2.84793 9.5675659,-0.82058625 8.7120972,-3.1526175 c -0.046875,-0.140625 -0.046875,-0.1523438 -0.046875,-0.1875 0,-0.2460938 0.3515625,-0.2460938 0.515625,-0.2460938 v -0.28125 l -0.9726563,0.035156 c -0.3046875,0 -0.5625,0 -0.8671875,-0.035156 v 0.28125 c 0.4335938,0 0.5507813,0.023437 0.65625,0.328125 l 1.1601563,3.16406255 c 0.046875,0.10546875 0.070312,0.1875 0.1992187,0.1875 0.140625,0 0.1757813,-0.09375 0.2109375,-0.1875 l 0.9140621,-2.50781255 0.925782,2.50781255 c 0.03516,0.09375 0.07031,0.1875 0.199218,0.1875 0.140625,0 0.164063,-0.08203125 0.199219,-0.17578125 l 1.066406,-2.9179688 c 0.199219,-0.5390625 0.5625,-0.5742187 0.761719,-0.5859375 z m 5.083008,3.58593755 v -0.28125 c -0.457031,0 -0.679688,0 -0.679688,-0.26953125 v -1.7226563 c 0,-0.75 0,-1.0078125 -0.257812,-1.3242187 -0.199219,-0.2460938 -0.550781,-0.3632813 -0.996094,-0.3632813 -0.832031,0 -1.21875,0.6210938 -1.347656,0.8671875 v -0.8671875 l -1.300781,0.09375 v 0.28125 c 0.609375,0 0.691406,0.058594 0.691406,0.5039063 v 2.390625 c 0,0.41015625 -0.105469,0.41015625 -0.691406,0.41015625 v 0.28125 c 0.421875,-0.0234375 0.585937,-0.0234375 1.019531,-0.0234375 0.433594,0 0.550781,0 1.019531,0.0234375 v -0.28125 c -0.585937,0 -0.691406,0 -0.691406,-0.41015625 v -1.6289063 c 0,-0.9492187 0.679687,-1.4179687 1.242187,-1.4179687 0.527344,0 0.644532,0.4335937 0.644532,0.9726562 V -0.69168 c 0,0.41015625 -0.09375,0.41015625 -0.691407,0.41015625 v 0.28125 c 0.421875,-0.0234375 0.597657,-0.0234375 1.019532,-0.0234375 0.433593,0 0.550781,0 1.019531,0.0234375 z M 22.768738,-1.06668 c 0,-0.058594 -0.04687,-0.1171875 -0.128906,-0.1171875 -0.09375,0 -0.117188,0.058594 -0.128907,0.09375 -0.304687,0.9140625 -1.101562,0.9375 -1.230468,0.9375 -0.433594,0 -0.796875,-0.24609375 -1.007813,-0.55078125 C 19.979675,-1.1369925 19.967957,-1.676055 19.967957,-2.051055 h 2.554687 c 0.199219,0 0.246094,0 0.246094,-0.1875 0,-0.9257813 -0.503906,-1.78125 -1.652344,-1.78125 -1.078125,0 -1.921875,0.9375 -1.921875,2.0507812 0,1.17187505 0.949219,2.06250005 2.039063,2.06250005 1.089843,0 1.535156,-0.94921875 1.535156,-1.16015625 z m -0.609375,-1.2070313 h -2.179688 c 0.08203,-1.3710937 0.878907,-1.5234375 1.136719,-1.5234375 0.492188,0 1.03125,0.3867188 1.042969,1.5234375 z m 4.21582,-1.1367187 c 0,-0.28125 -0.269531,-0.5507813 -0.667969,-0.5507813 -0.539062,0 -0.914062,0.375 -1.125,0.9257813 v -0.9257813 l -1.277343,0.09375 v 0.28125 c 0.609375,0 0.691406,0.058594 0.691406,0.5039063 v 2.390625 c 0,0.41015625 -0.105469,0.41015625 -0.691406,0.41015625 v 0.28125 c 0.46875,-0.0234375 0.585937,-0.0234375 1.042968,-0.0234375 l 1.148438,0.0234375 v -0.28125 h -0.1875 c -0.65625,0 -0.679688,-0.09375 -0.679688,-0.421875 V -2.051055 c 0,-0.375 0.105469,-1.6875 1.125,-1.6875 v 0.011719 c -0.02344,0.011719 -0.164062,0.1171875 -0.164062,0.328125 0,0.2460938 0.1875,0.3984375 0.398437,0.3984375 0.1875,0 0.386719,-0.140625 0.386719,-0.4101565 z m 0,0"
       style="fill:#000000;fill-opacity:1;fill-rule:nonzero;stroke:none"
       aria-label="Owner"
       transform="matrix(1.3333333,0,0,1.3333333,81.044027,95.79724)" />
    <path
       id="path4"
       d="M 3.0228303,2.015625e-4 V -0.28104844 H 2.8001741 c -0.7265625,0 -0.7382813,-0.10546875 -0.7382813,-0.421875 V -5.4138609 c 0,-0.328125 0.011719,-0.4335938 0.7382813,-0.4335938 h 0.2226562 v -0.2695312 c -0.375,0.023437 -0.984375,0.023437 -1.359375,0.023437 -0.3867187,0 -0.99609374,0 -1.37109374,-0.023437 v 0.2695312 h 0.22265625 c 0.72656249,0 0.73828129,0.1054688 0.73828129,0.4335938 v 4.71093746 c 0,0.31640625 -0.011719,0.421875 -0.73828129,0.421875 H 0.29236156 V 2.015625e-4 C 0.66736156,-0.02323594 1.2767366,-0.02323594 1.6634553,-0.02323594 c 0.375,0 0.984375,0 1.359375,0.0234375025 z m 5.203125,0 V -0.28104844 c -0.4570312,0 -0.6796875,0 -0.6796875,-0.26953125 V -2.2732359 c 0,-0.75 0,-1.0078125 -0.2578125,-1.3242188 -0.1992187,-0.2460937 -0.5507812,-0.3632812 -0.9960937,-0.3632812 -0.8320313,0 -1.21875,0.6210937 -1.3476563,0.8671875 v -0.8671875 l -1.3007812,0.09375 v 0.28125 c 0.609375,0 0.6914062,0.058594 0.6914062,0.5039062 v 2.39062501 c 0,0.41015625 -0.1054687,0.41015625 -0.6914062,0.41015625 V 2.015625e-4 C 4.0657991,-0.02323594 4.2298616,-0.02323594 4.6634553,-0.02323594 c 0.4335938,0 0.5507813,0 1.0195313,0.0234375025 V -0.28104844 c -0.5859375,0 -0.6914063,0 -0.6914063,-0.41015625 V -2.3201109 c 0,-0.9492188 0.6796875,-1.4179688 1.2421875,-1.4179688 0.5273438,0 0.6445313,0.4335938 0.6445313,0.9726563 v 2.07421871 c 0,0.41015625 -0.09375,0.41015625 -0.6914063,0.41015625 V 2.015625e-4 C 6.6087678,-0.02323594 6.7845491,-0.02323594 7.2064241,-0.02323594 c 0.4335937,0 0.5507812,0 1.0195312,0.0234375025 z M 11.266971,-1.1130797 v -0.5039062 h -0.257813 v 0.4804687 c 0,0.65625001 -0.28125,0.98437501 -0.597656,0.98437501 -0.5976561,0 -0.5976561,-0.78515625 -0.5976561,-0.94921871 v -2.484375 h 1.3007811 v -0.28125 H 9.8138459 v -1.640625 H 9.5560334 c 0,0.75 -0.3164062,1.6757812 -1.1835937,1.6992187 v 0.2226563 h 0.7734375 v 2.4726562 c 0,1.00781251 0.7265625,1.20703126 1.2070308,1.20703126 0.597657,0 0.914063,-0.57421875 0.914063,-1.20703126 z m 3.855469,-2.296875 c 0,-0.28125 -0.269532,-0.5507812 -0.667969,-0.5507812 -0.539063,0 -0.914063,0.375 -1.125,0.9257812 v -0.9257812 l -1.277344,0.09375 v 0.28125 c 0.609375,0 0.691406,0.058594 0.691406,0.5039062 v 2.39062501 c 0,0.41015625 -0.105468,0.41015625 -0.691406,0.41015625 V 2.015625e-4 C 12.520877,-0.02323594 12.638065,-0.02323594 13.095096,-0.02323594 L 14.243533,2.015625e-4 V -0.28104844 h -0.1875 c -0.65625,0 -0.679687,-0.09375 -0.679687,-0.421875 V -2.0505797 c 0,-0.375 0.105469,-1.6875 1.125,-1.6875 v 0.011719 c -0.02344,0.011719 -0.164063,0.1171875 -0.164063,0.328125 0,0.2460937 0.1875,0.3984375 0.398438,0.3984375 0.1875,0 0.386719,-0.140625 0.386719,-0.4101565 z M 20.284549,2.015625e-4 V -0.28104844 c -0.609375,0 -0.679687,-0.0585938 -0.679687,-0.50390625 V -3.9607359 l -1.359375,0.09375 v 0.28125 c 0.609375,0 0.691406,0.058594 0.691406,0.5039062 v 1.5820313 c 0,0.79687496 -0.445313,1.37109371 -1.089844,1.37109371 -0.75,0 -0.796875,-0.38671875 -0.796875,-0.8671875 V -3.9607359 l -1.347656,0.09375 v 0.28125 c 0.691406,0 0.691406,0.023437 0.691406,0.8203125 v 1.3476562 c 0,0.58593751 0,0.96093751 0.410156,1.27734376 0.257813,0.17578125 0.621094,0.234375 0.984375,0.234375 0.46875,0 0.902344,-0.19921875 1.160157,-0.73828125 h 0.01172 v 0.73828125 z m 5.0625,0 V -0.28104844 c -0.609375,0 -0.691406,-0.0585938 -0.691406,-0.50390625 V -6.2224547 l -1.324219,0.1054688 v 0.2695312 c 0.609375,0 0.691406,0.070312 0.691406,0.5039063 v 1.9101562 c -0.04687,-0.058594 -0.445312,-0.5273437 -1.148437,-0.5273437 -1.101563,0 -2.0625,0.8789062 -2.0625,2.0390625 0,1.11328121 0.902344,2.01562496 1.96875,2.01562496 0.644531,0 1.054687,-0.375 1.21875,-0.57421875 V 0.09395156 Z M 23.999393,-1.0779234 c 0,0.16406246 0,0.18749996 -0.140625,0.37499996 -0.28125,0.41015625 -0.691406,0.57421875 -1.042969,0.57421875 -0.386719,0 -0.75,-0.2109375 -0.984375,-0.5859375 C 21.597049,-1.1013609 21.58533,-1.6287047 21.58533,-1.9216734 c 0,-0.421875 0.04687,-0.890625 0.28125,-1.2539063 0.199219,-0.28125 0.5625,-0.5625 1.042969,-0.5625 0.375,0 0.738281,0.1875 0.972656,0.5273438 0.117188,0.140625 0.117188,0.1523437 0.117188,0.328125 z m 5.458008,0.011719 c 0,-0.058594 -0.04687,-0.1171875 -0.128907,-0.1171875 -0.09375,0 -0.117187,0.058594 -0.128906,0.09375 -0.304687,0.91406251 -1.101562,0.93750001 -1.230469,0.93750001 -0.433593,0 -0.796875,-0.24609375 -1.007812,-0.55078125 C 26.668338,-1.1365172 26.656619,-1.6755797 26.656619,-2.0505797 h 2.554688 c 0.199219,0 0.246094,0 0.246094,-0.1875 0,-0.9257812 -0.503907,-1.78125 -1.652344,-1.78125 -1.078125,0 -1.921875,0.9375 -1.921875,2.0507813 0,1.17187496 0.949219,2.06249996 2.039062,2.06249996 1.089844,0 1.535157,-0.94921875 1.535157,-1.16015596 z m -0.609375,-1.2070312 h -2.179688 c 0.08203,-1.3710938 0.878906,-1.5234375 1.136719,-1.5234375 0.492187,0 1.03125,0.3867187 1.042969,1.5234375 z m 4.21582,-1.1367188 c 0,-0.28125 -0.269531,-0.5507812 -0.667969,-0.5507812 -0.539062,0 -0.914062,0.375 -1.125,0.9257812 v -0.9257812 l -1.277344,0.09375 v 0.28125 c 0.609375,0 0.691407,0.058594 0.691407,0.5039062 v 2.39062501 c 0,0.41015625 -0.105469,0.41015625 -0.691407,0.41015625 V 2.015625e-4 C 30.462283,-0.02323594 30.579471,-0.02323594 31.036502,-0.02323594 L 32.18494,2.015625e-4 V -0.28104844 h -0.1875 c -0.65625,0 -0.679688,-0.09375 -0.679688,-0.421875 V -2.0505797 c 0,-0.375 0.105469,-1.6875 1.125,-1.6875 v 0.011719 c -0.02344,0.011719 -0.164062,0.1171875 -0.164062,0.328125 0,0.2460937 0.1875,0.3984375 0.398437,0.3984375 0.1875,0 0.386719,-0.140625 0.386719,-0.4101562 z m 0,0"
       style="fill:#000000;fill-opacity:1;fill-rule:nonzero;stroke:none"
       aria-label="Intruder"
       transform="matrix(1.3333333,0,0,1.3333333,76.590653,246.9802)" />
    <path
       id="path5"
       d="M 5.26564,5.26518 49.91843,49.91449"
       style="fill:none;stroke:#000000;stroke-width:0.79701;stroke-linecap:butt;stroke-linejoin:miter;stroke-miterlimit:10;stroke-dasharray:none;stroke-opacity:1"
       transform="matrix(1.3333333,0,0,-1.3333333,23.21216,167.30595)" />
    <g
       id="g5"
       aria-label="1/2"
       transform="matrix(1.3333333,0,0,1.3333333,50.786027,122.57189)">
      <path
         id="path6"
         d="m 2.7298159,-5.7316544 c 0,-0.2226562 -0.011719,-0.234375 -0.234375,-0.234375 -0.5625,0.5625 -1.3828125,0.5625 -1.66406246,0.5625 v 0.28125 c 0.17578126,0 0.71484376,0 1.20703126,-0.234375 v 4.64062502 c 0,0.328125 -0.035156,0.43359375 -0.8671875,0.43359375 H 0.88997219 v 0.28125 c 0.31640621,-0.0234375 1.11328121,-0.0234375 1.48828121,-0.0234375 0.3632813,0 1.171875,0 1.4882813,0.0234375 v -0.28125 h -0.28125 c -0.8320313,0 -0.8554688,-0.10546875 -0.8554688,-0.43359375 z m 0,0"
         style="fill:#000000;fill-opacity:1;fill-rule:nonzero;stroke:none" />
      <path
         id="path7"
         d="m 8.6389956,-6.3644669 c 0.058594,-0.1289062 0.058594,-0.140625 0.058594,-0.1640625 0,-0.1171875 -0.09375,-0.1992187 -0.1875,-0.1992187 -0.1289063,0 -0.1640625,0.070312 -0.1757813,0.09375 L 5.1702456,1.8855331 c -0.046875,0.1171875 -0.046875,0.140625 -0.046875,0.1523438 0,0.1171875 0.082031,0.1992187 0.1875,0.1992187 0.082031,0 0.1523438,-0.035156 0.2226563,-0.2109375 z m 0,0"
         style="fill:#000000;fill-opacity:1;fill-rule:nonzero;stroke:none" />
      <path
         id="path8"
         d="m 13.352863,-1.5832169 h -0.246094 c -0.02344,0.1171875 -0.09375,0.64453127 -0.210937,0.78515627 -0.04687,0.0820313 -0.667969,0.0820313 -0.84375,0.0820313 h -1.59375 l 0.878906,-0.84374997 c 1.476562,-1.2773437 2.015625,-1.7460937 2.015625,-2.6601562 0,-1.03125 -0.84375,-1.7460938 -1.945313,-1.7460938 -1.03125,0 -1.7343747,0.8085938 -1.7343747,1.6289063 0,0.4453125 0.3867187,0.4921875 0.4687497,0.4921875 0.199219,0 0.46875,-0.140625 0.46875,-0.46875 0,-0.2695313 -0.1875,-0.46875 -0.46875,-0.46875 -0.04687,0 -0.07031,0 -0.105468,0.011719 0.210937,-0.6328125 0.785156,-0.9257812 1.265625,-0.9257812 0.914062,0 1.230468,0.8554687 1.230468,1.4765625 0,0.9140625 -0.691406,1.6523437 -1.125,2.1210936 l -1.6406247,1.76953132 c -0.09375,0.10546875 -0.09375,0.1171875 -0.09375,0.328125 h 3.4335937 z m 0,0"
         style="fill:#000000;fill-opacity:1;fill-rule:nonzero;stroke:none" />
    </g>
    <path
       id="path9"
       d="M 5.26564,-5.26518 50.017,-50.01312"
       style="fill:none;stroke:#000000;stroke-width:0.79701;stroke-linecap:butt;stroke-linejoin:miter;stroke-miterlimit:10;stroke-dasharray:none;stroke-opacity:1"
       transform="matrix(1.3333333,0,0,-1.3333333,23.21216,167.30595)" />
    <g
       id="g9"
       aria-label="1/2"
       transform="matrix(1.3333333,0,0,1.3333333,50.851747,218.08339)">
      <path
         id="path10"
         d="m 2.7303306,-5.7314853 c 0,-0.2226563 -0.011719,-0.234375 -0.234375,-0.234375 -0.5625,0.5625 -1.3828125,0.5625 -1.66406248,0.5625 v 0.28125 c 0.17578128,0 0.71484378,0 1.20703128,-0.234375 v 4.64062499 c 0,0.328125 -0.035156,0.43359375 -0.8671875,0.43359375 H 0.89048687 v 0.28125 c 0.31640623,-0.0234375 1.11328123,-0.0234375 1.48828123,-0.0234375 0.3632813,0 1.171875,0 1.4882813,0.0234375 v -0.28125 h -0.28125 c -0.8320313,0 -0.8554688,-0.10546875 -0.8554688,-0.43359375 z m 0,0"
         style="fill:#000000;fill-opacity:1;fill-rule:nonzero;stroke:none" />
      <path
         id="path11"
         d="m 8.6395103,-6.3642978 c 0.058594,-0.1289063 0.058594,-0.140625 0.058594,-0.1640625 0,-0.1171875 -0.09375,-0.1992188 -0.1875,-0.1992188 -0.1289063,0 -0.1640625,0.070312 -0.1757813,0.09375 L 5.1707603,1.8857022 c -0.046875,0.1171875 -0.046875,0.140625 -0.046875,0.1523437 0,0.1171875 0.082031,0.1992188 0.1875,0.1992188 0.082031,0 0.1523438,-0.035156 0.2226563,-0.2109375 z m 0,0"
         style="fill:#000000;fill-opacity:1;fill-rule:nonzero;stroke:none" />
      <path
         id="path12"
         d="m 13.353377,-1.5830478 h -0.246093 c -0.02344,0.1171875 -0.09375,0.64453124 -0.210938,0.78515624 -0.04687,0.0820313 -0.667969,0.0820313 -0.84375,0.0820313 h -1.59375 l 0.878906,-0.84374994 c 1.476563,-1.2773439 2.015625,-1.7460939 2.015625,-2.6601563 0,-1.03125 -0.84375,-1.7460938 -1.945312,-1.7460938 -1.03125,0 -1.734375,0.8085938 -1.734375,1.6289063 0,0.4453124 0.386719,0.4921874 0.46875,0.4921874 0.199219,0 0.46875,-0.140625 0.46875,-0.4687499 0,-0.2695313 -0.1875,-0.46875 -0.46875,-0.46875 -0.04687,0 -0.07031,0 -0.105469,0.011719 0.210938,-0.6328125 0.785156,-0.9257813 1.265625,-0.9257813 0.914063,0 1.230469,0.8554688 1.230469,1.4765625 0,0.9140625 -0.691406,1.6523438 -1.125,2.1210938 L 9.76744,-0.32914156 c -0.09375,0.10546875 -0.09375,0.1171875 -0.09375,0.328125 h 3.433594 z m 0,0"
         style="fill:#000000;fill-opacity:1;fill-rule:nonzero;stroke:none" />
    </g>
    <path
       id="path13"
       d="m 148.48737,85.04042 c 0,3.72981 -3.02352,6.75333 -6.75333,6.75333 -3.7298,0 -6.75333,-3.02352 -6.75333,-6.75333 0,-3.7298 3.02353,-6.75332 6.75333,-6.75332 3.72981,0 6.75333,3.02352 6.75333,6.75332 z"
       style="fill:none;stroke:#000000;stroke-width:0.3985;stroke-linecap:butt;stroke-linejoin:miter;stroke-miterlimit:10;stroke-dasharray:none;stroke-opacity:1"
       transform="matrix(1.3333333,0,0,-1.3333333,23.21216,167.30595)" />
    <path
       id="path14"
       d="m 3.4098963,-5.4957441 c 0.058594,-0.2226562 0.082031,-0.3164062 0.2460937,-0.3398437 0.082031,-0.011719 0.375,-0.011719 0.5625,-0.011719 0.7148438,0 1.6992188,0 1.6992188,0.9023438 0,0.3398437 -0.140625,1.0078125 -0.6445313,1.3945312 -0.2226562,0.140625 -0.6679687,0.375 -1.3945312,0.375 H 2.8356775 Z m 1.3945312,2.4609375 c 1.21875,-0.3164062 1.96875,-0.9960937 1.96875,-1.734375 0,-0.7851562 -0.84375,-1.3476562 -2.0390625,-1.3476562 H 2.1325525 c -0.1640625,0 -0.2695312,0 -0.2695312,0.1523437 0,0.1171875 0.082031,0.1171875 0.2695312,0.1171875 0.035156,0 0.1992188,0 0.3398438,0.023437 0.1523437,0.011719 0.2109375,0.035156 0.2109375,0.1289063 0,0.046875 0,0.082031 -0.035156,0.1875 l -1.2070312,4.82812499 c -0.082031,0.31640625 -0.09375,0.3984375 -0.77343755,0.3984375 -0.1640625,0 -0.26953125,0 -0.26953125,0.1640625 0,0.09375 0.0820313,0.1171874975 0.140625,0.1171874975 0.140625,0 0.41015625,-0.0117187475 0.5625,-0.0234374975 0.1875,0 0.2109375,0 0.5625,0 0.28125,0 0.3046875,0 0.5625,0 0.1875,0.01171875 0.4101563,0.0234374975 0.5742188,0.0234374975 0.070312,0 0.1875,0 0.1875,-0.1640624975 0,-0.1171875 -0.09375,-0.1171875 -0.28125,-0.1171875 -0.035156,0 -0.1992188,0 -0.3398438,-0.0117188 -0.1992187,-0.0351563 -0.2109375,-0.0703125 -0.2109375,-0.140625 0,-0.0351563 0,-0.046875 0.046875,-0.2109375 L 2.7770838,-2.9527753 h 1.1015625 c 0.8085937,0 1.0195312,0.46875 1.0195312,0.8085937 0,0.070312 0,0.1289063 -0.058594,0.328125 -0.2109375,0.82031254 -0.2109375,0.90234379 -0.2109375,1.03125004 0,0.80859375 0.7617187,0.984375 1.21875,0.984375 0.7734375,0 1.1015625,-0.90234375 1.1015625,-1.0546875 0,-0.0585938 -0.058594,-0.10546875 -0.1171875,-0.10546875 -0.09375,0 -0.1054688,0.046875 -0.140625,0.15234375 -0.1523438,0.46875 -0.4921875,0.78515625 -0.8203125,0.78515625 -0.3398438,0 -0.3632813,-0.26953125 -0.3632813,-0.52734375 0,-0.234375 0.070312,-0.75000004 0.082031,-0.80859374 0.011719,-0.1523438 0.058594,-0.5039063 0.058594,-0.6445313 0,-0.5039062 -0.328125,-0.8554687 -0.8437497,-1.03125 z m 0,0"
       style="fill:#000000;fill-opacity:1;fill-rule:nonzero;stroke:none"
       aria-label="R"
       transform="matrix(1.3333333,0,0,1.3333333,207.50035,58.00344)" />
    <path
       id="path15"
       d="m 148.48737,28.3468 c 0,3.72981 -3.02352,6.75333 -6.75333,6.75333 -3.7298,0 -6.75333,-3.02352 -6.75333,-6.75333 0,-3.7298 3.02353,-6.75332 6.75333,-6.75332 3.72981,0 6.75333,3.02352 6.75333,6.75332 z"
       style="fill:none;stroke:#000000;stroke-width:0.3985;stroke-linecap:butt;stroke-linejoin:miter;stroke-miterlimit:10;stroke-dasharray:none;stroke-opacity:1"
       transform="matrix(1.3333333,0,0,-1.3333333,23.21216,167.30595)" />
    <path
       id="path16"
       d="M 3.4098963,-5.4969813 C 3.46849,-5.7196375 3.4919275,-5.8133875 3.65599,-5.836825 c 0.082031,-0.011719 0.375,-0.011719 0.5625,-0.011719 0.7148438,0 1.6992188,0 1.6992188,0.9023438 0,0.3398437 -0.140625,1.0078125 -0.6445313,1.3945312 -0.2226562,0.140625 -0.6679687,0.375 -1.3945312,0.375 H 2.8356775 Z m 1.3945312,2.4609375 c 1.21875,-0.3164062 1.96875,-0.9960937 1.96875,-1.734375 0,-0.7851562 -0.84375,-1.3476562 -2.0390625,-1.3476562 H 2.1325525 c -0.1640625,0 -0.2695312,0 -0.2695312,0.1523437 0,0.1171875 0.082031,0.1171875 0.2695312,0.1171875 0.035156,0 0.1992188,0 0.3398438,0.023437 0.1523437,0.011719 0.2109375,0.035156 0.2109375,0.1289063 0,0.046875 0,0.082031 -0.035156,0.1875 l -1.2070312,4.828125 c -0.082031,0.31640625 -0.09375,0.3984375 -0.77343755,0.3984375 -0.1640625,0 -0.26953125,0 -0.26953125,0.1640625 0,0.09375 0.0820313,0.1171875 0.140625,0.1171875 0.140625,0 0.41015625,-0.01171875 0.5625,-0.0234375 0.1875,0 0.2109375,0 0.5625,0 0.28125,0 0.3046875,0 0.5625,0 0.1875,0.01171875 0.4101563,0.0234375 0.5742188,0.0234375 0.070312,0 0.1875,0 0.1875,-0.1640625 0,-0.1171875 -0.09375,-0.1171875 -0.28125,-0.1171875 -0.035156,0 -0.1992188,0 -0.3398438,-0.0117188 -0.1992187,-0.0351563 -0.2109375,-0.0703125 -0.2109375,-0.140625 0,-0.0351563 0,-0.046875 0.046875,-0.2109375 l 0.5742185,-2.3085932 h 1.1015625 c 0.8085937,0 1.0195312,0.46875 1.0195312,0.8085937 0,0.070312 0,0.1289063 -0.058594,0.328125 C 4.628646,-0.99698125 4.628646,-0.91495 4.628646,-0.78604375 c 0,0.80859375 0.7617187,0.984375 1.21875,0.984375 0.7734375,0 1.1015625,-0.90234375 1.1015625,-1.0546875 0,-0.0585938 -0.058594,-0.10546875 -0.1171875,-0.10546875 -0.09375,0 -0.1054688,0.046875 -0.140625,0.15234375 -0.1523438,0.46875 -0.4921875,0.78515625 -0.8203125,0.78515625 -0.3398438,0 -0.3632813,-0.26953125 -0.3632813,-0.52734375 0,-0.234375 0.070312,-0.75000005 0.082031,-0.80859375 0.011719,-0.1523438 0.058594,-0.5039063 0.058594,-0.6445313 0,-0.5039062 -0.328125,-0.8554687 -0.8437497,-1.03125 z m 0,0"
       style="fill:#000000;fill-opacity:1;fill-rule:nonzero;stroke:none"
       aria-label="R"
       transform="matrix(1.3333333,0,0,1.3333333,207.50035,133.59493)" />
    <path
       id="path17"
       d="m 148.48737,-28.3468 c 0,3.7298 -3.02352,6.75332 -6.75333,6.75332 -3.7298,0 -6.75333,-3.02352 -6.75333,-6.75332 0,-3.72981 3.02353,-6.75333 6.75333,-6.75333 3.72981,0 6.75333,3.02352 6.75333,6.75333 z"
       style="fill:none;stroke:#000000;stroke-width:0.3985;stroke-linecap:butt;stroke-linejoin:miter;stroke-miterlimit:10;stroke-dasharray:none;stroke-opacity:1"
       transform="matrix(1.3333333,0,0,-1.3333333,23.21216,167.30595)" />
    <path
       id="path18"
       d="M 3.4098963,-5.4952687 C 3.46849,-5.717925 3.4919275,-5.811675 3.65599,-5.8351125 c 0.082031,-0.011719 0.375,-0.011719 0.5625,-0.011719 0.7148438,0 1.6992188,0 1.6992188,0.9023437 0,0.3398438 -0.140625,1.0078125 -0.6445313,1.3945313 -0.2226562,0.140625 -0.6679687,0.375 -1.3945312,0.375 H 2.8356775 Z m 1.3945312,2.4609375 c 1.21875,-0.3164063 1.96875,-0.9960938 1.96875,-1.734375 0,-0.7851563 -0.84375,-1.3476563 -2.0390625,-1.3476563 H 2.1325525 c -0.1640625,0 -0.2695312,0 -0.2695312,0.1523438 0,0.1171875 0.082031,0.1171875 0.2695312,0.1171875 0.035156,0 0.1992188,0 0.3398438,0.023437 0.1523437,0.011719 0.2109375,0.035156 0.2109375,0.1289062 0,0.046875 0,0.082031 -0.035156,0.1875 l -1.2070312,4.828125 c -0.082031,0.31640625 -0.09375,0.3984375 -0.77343755,0.3984375 -0.1640625,0 -0.26953125,0 -0.26953125,0.1640625 0,0.09375 0.0820313,0.1171875 0.140625,0.1171875 0.140625,0 0.41015625,-0.01171875 0.5625,-0.0234375 0.1875,0 0.2109375,0 0.5625,0 0.28125,0 0.3046875,0 0.5625,0 0.1875,0.01171875 0.4101563,0.0234375 0.5742188,0.0234375 0.070312,0 0.1875,0 0.1875,-0.1640625 0,-0.1171875 -0.09375,-0.1171875 -0.28125,-0.1171875 -0.035156,0 -0.1992188,0 -0.3398438,-0.0117188 C 2.1677088,-0.3273 2.15599,-0.36245625 2.15599,-0.43276875 c 0,-0.0351563 0,-0.046875 0.046875,-0.2109375 L 2.7770838,-2.9523 h 1.1015625 c 0.8085937,0 1.0195312,0.46875 1.0195312,0.8085938 0,0.070312 0,0.1289062 -0.058594,0.328125 -0.2109375,0.82031245 -0.2109375,0.9023437 -0.2109375,1.03124995 0,0.80859375 0.7617187,0.984375 1.21875,0.984375 0.7734375,0 1.1015625,-0.90234375 1.1015625,-1.0546875 0,-0.0585938 -0.058594,-0.10546875 -0.1171875,-0.10546875 -0.09375,0 -0.1054688,0.046875 -0.140625,0.15234375 -0.1523438,0.46875 -0.4921875,0.78515625 -0.8203125,0.78515625 -0.3398438,0 -0.3632813,-0.26953125 -0.3632813,-0.52734375 0,-0.234375 0.070312,-0.74999995 0.082031,-0.80859375 0.011719,-0.1523437 0.058594,-0.5039062 0.058594,-0.6445312 0,-0.5039063 -0.328125,-0.8554688 -0.8437497,-1.03125 z m 0,0"
       style="fill:#000000;fill-opacity:1;fill-rule:nonzero;stroke:none"
       aria-label="R"
       transform="matrix(1.3333333,0,0,1.3333333,207.50035,209.1864)" />
    <path
       id="path19"
       d="m 148.48737,-85.04042 c 0,3.7298 -3.02352,6.75332 -6.75333,6.75332 -3.7298,0 -6.75333,-3.02352 -6.75333,-6.75332 0,-3.72981 3.02353,-6.75333 6.75333,-6.75333 3.72981,0 6.75333,3.02352 6.75333,6.75333 z"
       style="fill:none;stroke:#000000;stroke-width:0.3985;stroke-linecap:butt;stroke-linejoin:miter;stroke-miterlimit:10;stroke-dasharray:none;stroke-opacity:1"
       transform="matrix(1.3333333,0,0,-1.3333333,23.21216,167.30595)" />
    <path
       id="path20"
       d="m 3.4098963,-5.4965059 c 0.058594,-0.2226563 0.082031,-0.3164063 0.2460937,-0.3398438 0.082031,-0.011719 0.375,-0.011719 0.5625,-0.011719 0.7148438,0 1.6992188,0 1.6992188,0.9023437 0,0.3398438 -0.140625,1.0078125 -0.6445313,1.3945313 -0.2226562,0.140625 -0.6679687,0.375 -1.3945312,0.375 H 2.8356775 Z m 1.3945312,2.4609375 c 1.21875,-0.3164063 1.96875,-0.9960938 1.96875,-1.734375 0,-0.7851563 -0.84375,-1.3476563 -2.0390625,-1.3476563 H 2.1325525 c -0.1640625,0 -0.2695312,0 -0.2695312,0.1523438 0,0.1171875 0.082031,0.1171875 0.2695312,0.1171875 0.035156,0 0.1992188,0 0.3398438,0.023437 0.1523437,0.011719 0.2109375,0.035156 0.2109375,0.1289062 0,0.046875 0,0.082031 -0.035156,0.1875 l -1.2070312,4.82812501 c -0.082031,0.31640625 -0.09375,0.3984375 -0.77343755,0.3984375 -0.1640625,0 -0.26953125,0 -0.26953125,0.1640625 0,0.09375 0.0820313,0.1171875025 0.140625,0.1171875025 0.140625,0 0.41015625,-0.0117187525 0.5625,-0.0234375025 0.1875,0 0.2109375,0 0.5625,0 0.28125,0 0.3046875,0 0.5625,0 0.1875,0.01171875 0.4101563,0.0234375025 0.5742188,0.0234375025 0.070312,0 0.1875,0 0.1875,-0.1640625025 0,-0.1171875 -0.09375,-0.1171875 -0.28125,-0.1171875 -0.035156,0 -0.1992188,0 -0.3398438,-0.0117188 -0.1992187,-0.0351563 -0.2109375,-0.0703125 -0.2109375,-0.140625 0,-0.0351563 0,-0.046875 0.046875,-0.2109375 L 2.7770838,-2.9535372 h 1.1015625 c 0.8085937,0 1.0195312,0.46875 1.0195312,0.8085938 0,0.070312 0,0.1289062 -0.058594,0.328125 -0.2109375,0.82031246 -0.2109375,0.90234371 -0.2109375,1.03124996 0,0.80859375 0.7617187,0.984375 1.21875,0.984375 0.7734375,0 1.1015625,-0.90234375 1.1015625,-1.0546875 0,-0.0585938 -0.058594,-0.10546875 -0.1171875,-0.10546875 -0.09375,0 -0.1054688,0.046875 -0.140625,0.15234375 -0.1523438,0.46875 -0.4921875,0.78515625 -0.8203125,0.78515625 -0.3398438,0 -0.3632813,-0.26953125 -0.3632813,-0.52734375 0,-0.234375 0.070312,-0.74999996 0.082031,-0.80859376 0.011719,-0.1523437 0.058594,-0.5039062 0.058594,-0.6445312 0,-0.5039063 -0.328125,-0.8554688 -0.8437497,-1.03125 z m 0,0"
       style="fill:#000000;fill-opacity:1;fill-rule:nonzero;stroke:none"
       aria-label="R"
       transform="matrix(1.3333333,0,0,1.3333333,207.50035,284.77789)" />
    <path
       id="path21"
       d="m 73.53314,62.30438 61.60541,20.5376"
       style="fill:none;stroke:#000000;stroke-width:0.79701;stroke-linecap:butt;stroke-linejoin:miter;stroke-miterlimit:10;stroke-dasharray:none;stroke-opacity:1"
       transform="matrix(1.3333333,0,0,-1.3333333,23.21216,167.30595)" />
    <g
       id="g21"
       aria-label="m=I"
       transform="matrix(1.3333333,0,0,1.3333333,145.56899,65.582947)">
      <path
         id="path22"
         d="m 1.7002131,-1.4069366 c 0.09375,-0.421875 0.2695313,-1.078125 0.2695313,-1.1484375 0.023437,-0.058594 0.2460937,-0.4804687 0.5625,-0.796875 0.2695312,-0.2460937 0.609375,-0.3867187 0.9609375,-0.3867187 0.4804687,0 0.4804687,0.4804687 0.4804687,0.6328125 0,0.1054687 0,0.2226562 -0.1054687,0.6679687 l -0.2109375,0.796875 c -0.28125,1.16015629 -0.3515625,1.42968754 -0.3515625,1.47656254 0,0.1171875 0.070312,0.2578125 0.2695312,0.2578125 0.1289063,0 0.2578125,-0.0703125 0.328125,-0.1875 0.023437,-0.046875 0.09375,-0.33984375 0.140625,-0.515625 L 4.2549006,-1.4069366 c 0.09375,-0.421875 0.2695313,-1.078125 0.2695313,-1.1484375 0.023437,-0.058594 0.2460937,-0.4804687 0.5742187,-0.796875 0.2578125,-0.2460937 0.5976563,-0.3867187 0.9492188,-0.3867187 0.4804687,0 0.4804687,0.4804687 0.4804687,0.6328125 0,0.5390625 -0.421875,1.640625 -0.515625,1.9101562 -0.1171875,0.28125004 -0.1523437,0.37500004 -0.1523437,0.53906254 0,0.48046875 0.375,0.75 0.7734375,0.75 0.8671875,0 1.2070312,-1.27734374 1.2070312,-1.37109374 0,-0.046875 -0.023437,-0.1171875 -0.1171875,-0.1171875 -0.09375,0 -0.1054687,0.046875 -0.140625,0.1640625 -0.2226562,0.76171874 -0.5976562,1.10156249 -0.9257812,1.10156249 -0.058594,0 -0.2226563,0 -0.2226563,-0.28125 0,-0.22265625 0.09375,-0.45703125 0.1640625,-0.65624999 0.1757813,-0.4570313 0.5390625,-1.40625 0.5390625,-1.9101563 0,-0.796875 -0.5976562,-0.984375 -1.0664062,-0.984375 -0.8554688,0 -1.3242188,0.6328125 -1.4765625,0.8554688 -0.09375,-0.7382813 -0.703125,-0.8554688 -1.078125,-0.8554688 -0.8320313,0 -1.2773438,0.5859375 -1.4179688,0.7734375 -0.058594,-0.4804687 -0.421875,-0.7734375 -0.8671875,-0.7734375 -0.37499998,0 -0.56249998,0.28125 -0.69140623,0.515625 -0.15234375,0.3164063 -0.28125,0.8320313 -0.28125,0.8671875 0,0.082031 0.0703125,0.1054688 0.12890625,0.1054688 0.09375,0 0.1171875,-0.046875 0.1640625,-0.2226563 0.1640625,-0.7148437 0.3515625,-1.0429687 0.65624998,-1.0429687 0.2695313,0 0.2695313,0.28125 0.2695313,0.421875 0,0.1875 -0.070312,0.46875 -0.1171875,0.703125 -0.070312,0.234375 -0.1523438,0.609375 -0.1992188,0.7265625 l -0.35156248,1.46484374 c -0.0703125,0.2109375 -0.0703125,0.234375 -0.0703125,0.2578125 0,0.1171875 0.0820313,0.2578125 0.28124998,0.2578125 0.1289063,0 0.2578125,-0.0703125 0.328125,-0.1875 0.023437,-0.046875 0.09375,-0.33984375 0.140625,-0.515625 z m 0,0"
         style="fill:#000000;fill-opacity:1;fill-rule:nonzero;stroke:none" />
      <path
         id="path23"
         d="m 17.031268,-2.9655303 c 0.117187,0 0.292969,0 0.292969,-0.1875 0,-0.1992188 -0.199219,-0.1992188 -0.328125,-0.1992188 h -5.472657 c -0.140625,0 -0.328125,0 -0.328125,0.1992188 0,0.1875 0.175782,0.1875 0.292969,0.1875 z m -0.03516,1.828125 c 0.128906,0 0.328125,0 0.328125,-0.1992188 0,-0.1875 -0.175782,-0.1875 -0.292969,-0.1875 h -5.542969 c -0.117187,0 -0.292969,0 -0.292969,0.1875 0,0.1992188 0.1875,0.1992188 0.328125,0.1992188 z m 0,0"
         style="fill:#000000;fill-opacity:1;fill-rule:nonzero;stroke:none" />
      <path
         id="path24"
         d="m 23.816424,-5.4264678 c 0.09375,-0.3398438 0.117188,-0.421875 0.84375,-0.421875 0.164063,0 0.257813,0 0.257813,-0.1640625 0,-0.09375 -0.09375,-0.1054688 -0.140625,-0.1054688 -0.1875,0 -0.386719,0.011719 -0.574219,0.011719 -0.199219,0 -0.539063,0.011719 -0.609375,0.011719 -0.199219,0 -0.410156,-0.011719 -0.609375,-0.011719 -0.199219,0 -0.410156,-0.011719 -0.585938,-0.011719 -0.05859,0 -0.175781,0 -0.175781,0.1523438 0,0.1171875 0.08203,0.1171875 0.257813,0.1171875 0.199218,0 0.410156,0 0.585937,0.070312 0.01172,0.035156 0.01172,0.070312 0.01172,0.082031 0,0.035156 -0.01172,0.140625 -0.02344,0.1757813 l -1.21875,4.83984374 c -0.07031,0.31640625 -0.09375,0.3984375 -0.785156,0.3984375 -0.199219,0 -0.292969,0 -0.292969,0.1640625 0,0.046875 0.01172,0.1171874975 0.128907,0.1171874975 0.1875,0 0.375,-0.0234374975 0.574218,-0.0234374975 0.199219,0 0.410157,0 0.609375,0 0.210938,0 0.410157,0 0.621094,0 0.1875,0 0.398438,0.0234374975 0.585938,0.0234374975 0.05859,0 0.175781,0 0.175781,-0.1640624975 0,-0.1171875 -0.09375,-0.1171875 -0.269531,-0.1171875 -0.339844,0 -0.597657,0 -0.597657,-0.15234375 0,-0.0703125 0,-0.0820313 0.03516,-0.2109375 z m 0,0"
         style="fill:#000000;fill-opacity:1;fill-rule:nonzero;stroke:none" />
    </g>
    <path
       id="path25"
       d="M 73.53314,51.08284 135.13855,30.54526"
       style="fill:none;stroke:#000000;stroke-width:0.79701;stroke-linecap:butt;stroke-linejoin:miter;stroke-miterlimit:10;stroke-dasharray:none;stroke-opacity:1"
       transform="matrix(1.3333333,0,0,-1.3333333,23.21216,167.30595)" />
    <g
       id="g25"
       aria-label="m=O"
       transform="matrix(1.3333333,0,0,1.3333333,143.87689,126.0154)">
      <path
         id="path26"
         d="m 1.6977987,-1.4060812 c 0.09375,-0.421875 0.2695313,-1.078125 0.2695313,-1.1484375 0.023437,-0.058594 0.2460937,-0.4804688 0.5625,-0.796875 0.2695312,-0.2460938 0.609375,-0.3867188 0.9609375,-0.3867188 0.4804687,0 0.4804687,0.4804688 0.4804687,0.6328125 0,0.1054688 0,0.2226563 -0.1054687,0.6679688 L 3.65483,-1.6404562 C 3.37358,-0.4803 3.3032675,-0.21076875 3.3032675,-0.16389375 c 0,0.1171875 0.070312,0.2578125 0.2695312,0.2578125 0.1289063,0 0.2578125,-0.0703125 0.328125,-0.1875 0.023437,-0.046875 0.09375,-0.33984375 0.140625,-0.515625 L 4.2524862,-1.4060812 c 0.09375,-0.421875 0.2695313,-1.078125 0.2695313,-1.1484375 0.023437,-0.058594 0.2460937,-0.4804688 0.5742187,-0.796875 0.2578125,-0.2460938 0.5976563,-0.3867188 0.9492188,-0.3867188 0.4804687,0 0.4804687,0.4804688 0.4804687,0.6328125 0,0.5390625 -0.421875,1.640625 -0.515625,1.9101563 -0.1171875,0.28124995 -0.1523437,0.37499995 -0.1523437,0.53906245 0,0.48046875 0.375,0.75 0.7734375,0.75 0.8671875,0 1.2070312,-1.27734375 1.2070312,-1.37109375 0,-0.046875 -0.023437,-0.1171875 -0.1171875,-0.1171875 -0.09375,0 -0.1054687,0.046875 -0.140625,0.1640625 -0.2226562,0.76171875 -0.5976562,1.1015625 -0.9257812,1.1015625 -0.058594,0 -0.2226563,0 -0.2226563,-0.28125 0,-0.22265625 0.09375,-0.45703125 0.1640625,-0.65625 0.1757813,-0.4570312 0.5390625,-1.40625 0.5390625,-1.9101562 0,-0.796875 -0.5976562,-0.984375 -1.0664062,-0.984375 -0.8554688,0 -1.3242188,0.6328125 -1.4765625,0.8554687 -0.09375,-0.7382812 -0.703125,-0.8554687 -1.078125,-0.8554687 -0.8320313,0 -1.2773438,0.5859375 -1.4179688,0.7734375 -0.058594,-0.4804688 -0.421875,-0.7734375 -0.8671875,-0.7734375 -0.37499995,0 -0.56249995,0.28125 -0.6914062,0.515625 -0.15234375,0.3164062 -0.28125,0.8320312 -0.28125,0.8671875 0,0.082031 0.0703125,0.1054687 0.12890625,0.1054687 0.09375,0 0.1171875,-0.046875 0.1640625,-0.2226562 0.1640625,-0.7148438 0.3515625,-1.0429688 0.65624995,-1.0429688 0.2695313,0 0.2695313,0.28125 0.2695313,0.421875 0,0.1875 -0.070312,0.46875 -0.1171875,0.703125 -0.070312,0.234375 -0.1523438,0.609375 -0.1992188,0.7265625 l -0.35156245,1.46484375 c -0.0703125,0.2109375 -0.0703125,0.234375 -0.0703125,0.2578125 0,0.1171875 0.0820313,0.2578125 0.28124995,0.2578125 0.1289063,0 0.2578125,-0.0703125 0.328125,-0.1875 0.023437,-0.046875 0.09375,-0.33984375 0.140625,-0.515625 z m 0,0"
         style="fill:#000000;fill-opacity:1;fill-rule:nonzero;stroke:none" />
      <path
         id="path27"
         d="m 17.028853,-2.964675 c 0.117188,0 0.292969,0 0.292969,-0.1875 0,-0.1992187 -0.199219,-0.1992187 -0.328125,-0.1992187 h -5.472656 c -0.140625,0 -0.328125,0 -0.328125,0.1992187 0,0.1875 0.175781,0.1875 0.292969,0.1875 z m -0.03516,1.828125 c 0.128906,0 0.328125,0 0.328125,-0.1992187 0,-0.1875 -0.175781,-0.1875 -0.292969,-0.1875 h -5.542968 c -0.117188,0 -0.292969,0 -0.292969,0.1875 0,0.1992187 0.1875,0.1992187 0.328125,0.1992187 z m 0,0"
         style="fill:#000000;fill-opacity:1;fill-rule:nonzero;stroke:none" />
      <path
         id="path28"
         d="m 27.203658,-3.8787375 c 0,-1.4179687 -0.949219,-2.4375 -2.355469,-2.4375 -2.015625,0 -3.996093,2.0625 -3.996093,4.1015625 0,1.4765625 1.019531,2.4140625 2.367187,2.4140625 2.003906,0 3.984375,-2.0039062 3.984375,-4.078125 z m -3.914062,3.80859375 c -0.867188,0 -1.570313,-0.65625 -1.570313,-1.92187495 0,-0.46875 0.152344,-1.7929688 0.890625,-2.8125 0.644531,-0.8789063 1.511719,-1.265625 2.167969,-1.265625 0.878906,0 1.605469,0.6328125 1.605469,1.8515625 0,0.5742187 -0.234375,1.8867187 -0.984375,2.90625 -0.667969,0.89062495 -1.5,1.24218745 -2.109375,1.24218745 z m 0,0"
         style="fill:#000000;fill-opacity:1;fill-rule:nonzero;stroke:none" />
    </g>
    <path
       id="path29"
       d="m 76.72713,-50.01312 58.41142,19.46786"
       style="fill:none;stroke:#000000;stroke-width:0.79701;stroke-linecap:butt;stroke-linejoin:miter;stroke-miterlimit:10;stroke-dasharray:none;stroke-opacity:1"
       transform="matrix(1.3333333,0,0,-1.3333333,23.21216,167.30595)" />
    <g
       id="g29"
       aria-label="m=O"
       transform="matrix(1.3333333,0,0,1.3333333,146.00621,216.05275)">
      <path
         id="path30"
         d="m 1.7004181,-1.4047944 c 0.09375,-0.421875 0.2695313,-1.078125 0.2695313,-1.1484375 0.023437,-0.058594 0.2460937,-0.4804687 0.5625,-0.796875 0.2695312,-0.2460937 0.609375,-0.3867187 0.9609375,-0.3867187 0.4804687,0 0.4804687,0.4804687 0.4804687,0.6328125 0,0.1054687 0,0.2226562 -0.1054687,0.6679687 l -0.2109375,0.796875 c -0.28125,1.16015628 -0.3515625,1.42968753 -0.3515625,1.47656253 0,0.1171875 0.070312,0.2578125 0.2695312,0.2578125 0.1289063,0 0.2578125,-0.0703125 0.328125,-0.1875 0.023437,-0.046875 0.09375,-0.33984375 0.140625,-0.515625 L 4.2551056,-1.4047944 c 0.09375,-0.421875 0.2695313,-1.078125 0.2695313,-1.1484375 0.023437,-0.058594 0.2460937,-0.4804687 0.5742187,-0.796875 0.2578125,-0.2460937 0.5976563,-0.3867187 0.9492188,-0.3867187 0.4804687,0 0.4804687,0.4804687 0.4804687,0.6328125 0,0.5390625 -0.421875,1.640625 -0.515625,1.9101562 -0.1171875,0.28125003 -0.1523437,0.37500003 -0.1523437,0.53906253 0,0.48046875 0.375,0.75 0.7734375,0.75 0.8671875,0 1.2070312,-1.27734373 1.2070312,-1.37109373 0,-0.046875 -0.023437,-0.1171875 -0.1171875,-0.1171875 -0.09375,0 -0.1054687,0.046875 -0.140625,0.1640625 -0.2226562,0.76171873 -0.5976562,1.10156248 -0.9257812,1.10156248 -0.058594,0 -0.2226563,0 -0.2226563,-0.28125 0,-0.22265625 0.09375,-0.45703125 0.1640625,-0.65624998 0.1757813,-0.4570313 0.5390625,-1.40625 0.5390625,-1.9101563 0,-0.796875 -0.5976562,-0.984375 -1.0664062,-0.984375 -0.8554688,0 -1.3242188,0.6328125 -1.4765625,0.8554688 -0.09375,-0.7382813 -0.703125,-0.8554688 -1.078125,-0.8554688 -0.8320313,0 -1.2773438,0.5859375 -1.4179688,0.7734375 -0.058594,-0.4804687 -0.421875,-0.7734375 -0.8671875,-0.7734375 -0.37499998,0 -0.56249998,0.28125 -0.69140623,0.515625 -0.15234375,0.3164063 -0.28125,0.8320313 -0.28125,0.8671875 0,0.082031 0.0703125,0.1054688 0.12890625,0.1054688 0.09375,0 0.1171875,-0.046875 0.1640625,-0.2226563 0.1640625,-0.7148437 0.3515625,-1.0429687 0.65624998,-1.0429687 0.2695313,0 0.2695313,0.28125 0.2695313,0.421875 0,0.1875 -0.070312,0.46875 -0.1171875,0.703125 -0.070312,0.234375 -0.1523438,0.609375 -0.1992188,0.7265625 l -0.35156248,1.46484373 c -0.0703125,0.2109375 -0.0703125,0.234375 -0.0703125,0.2578125 0,0.1171875 0.0820313,0.2578125 0.28124998,0.2578125 0.1289063,0 0.2578125,-0.0703125 0.328125,-0.1875 0.023437,-0.046875 0.09375,-0.33984375 0.140625,-0.515625 z m 0,0"
         style="fill:#000000;fill-opacity:1;fill-rule:nonzero;stroke:none" />
      <path
         id="path31"
         d="m 17.031473,-2.9633881 c 0.117187,0 0.292969,0 0.292969,-0.1875 0,-0.1992188 -0.199219,-0.1992188 -0.328125,-0.1992188 H 11.52366 c -0.140625,0 -0.328125,0 -0.328125,0.1992188 0,0.1875 0.175782,0.1875 0.292969,0.1875 z m -0.03516,1.828125 c 0.128906,0 0.328125,0 0.328125,-0.1992188 0,-0.1875 -0.175782,-0.1875 -0.292969,-0.1875 H 11.4885 c -0.117187,0 -0.292969,0 -0.292969,0.1875 0,0.1992188 0.1875,0.1992188 0.328125,0.1992188 z m 0,0"
         style="fill:#000000;fill-opacity:1;fill-rule:nonzero;stroke:none" />
      <path
         id="path32"
         d="m 27.203348,-3.8774506 c 0,-1.4179688 -0.949219,-2.4375 -2.355469,-2.4375 -2.015625,0 -3.996094,2.0625 -3.996094,4.1015625 0,1.47656248 1.019532,2.41406248 2.367188,2.41406248 2.003906,0 3.984375,-2.00390628 3.984375,-4.07812498 z m -3.914063,3.80859373 c -0.867187,0 -1.570312,-0.65625 -1.570312,-1.92187503 0,-0.46875 0.152344,-1.7929687 0.890625,-2.8125 0.644531,-0.8789062 1.511719,-1.265625 2.167969,-1.265625 0.878906,0 1.605468,0.6328125 1.605468,1.8515625 0,0.5742188 -0.234375,1.8867188 -0.984375,2.90625 -0.667968,0.89062503 -1.5,1.24218753 -2.109375,1.24218753 z m 0,0"
         style="fill:#000000;fill-opacity:1;fill-rule:nonzero;stroke:none" />
    </g>
    <path
       id="path33"
       d="m 76.72713,-63.3741 58.41142,-19.46788"
       style="fill:none;stroke:#000000;stroke-width:0.79701;stroke-linecap:butt;stroke-linejoin:miter;stroke-miterlimit:10;stroke-dasharray:none;stroke-opacity:1"
       transform="matrix(1.3333333,0,0,-1.3333333,23.21216,167.30595)" />
    <g
       id="g33"
       aria-label="m=I"
       transform="matrix(1.3333333,0,0,1.3333333,147.69829,277.91152)">
      <path
         id="path34"
         d="m 1.6999128,-1.4072728 c 0.09375,-0.421875 0.2695313,-1.078125 0.2695313,-1.1484375 0.023437,-0.058594 0.2460937,-0.4804688 0.5625,-0.796875 0.2695312,-0.2460938 0.609375,-0.3867188 0.9609375,-0.3867188 0.4804687,0 0.4804687,0.4804688 0.4804687,0.6328125 0,0.1054688 0,0.2226563 -0.1054687,0.6679688 l -0.2109375,0.796875 c -0.28125,1.16015624 -0.3515625,1.42968749 -0.3515625,1.47656249 0,0.1171875 0.070312,0.2578125 0.2695312,0.2578125 0.1289063,0 0.2578125,-0.0703125 0.328125,-0.1875 0.023437,-0.046875 0.09375,-0.33984375 0.140625,-0.515625 L 4.2546003,-1.4072728 c 0.09375,-0.421875 0.2695313,-1.078125 0.2695313,-1.1484375 0.023437,-0.058594 0.2460937,-0.4804688 0.5742187,-0.796875 0.2578125,-0.2460938 0.5976563,-0.3867188 0.9492188,-0.3867188 0.4804687,0 0.4804687,0.4804688 0.4804687,0.6328125 0,0.5390625 -0.421875,1.640625 -0.515625,1.9101563 -0.1171875,0.28124999 -0.1523437,0.37499999 -0.1523437,0.53906249 0,0.48046875 0.375,0.75 0.7734375,0.75 0.8671875,0 1.2070312,-1.27734379 1.2070312,-1.37109379 0,-0.046875 -0.023437,-0.1171875 -0.1171875,-0.1171875 -0.09375,0 -0.1054687,0.046875 -0.140625,0.1640625 -0.2226562,0.76171879 -0.5976562,1.10156254 -0.9257812,1.10156254 -0.058594,0 -0.2226563,0 -0.2226563,-0.28125 0,-0.22265625 0.09375,-0.45703125 0.1640625,-0.65625004 0.1757813,-0.4570312 0.5390625,-1.40625 0.5390625,-1.9101562 0,-0.796875 -0.5976562,-0.984375 -1.0664062,-0.984375 -0.8554688,0 -1.3242188,0.6328125 -1.4765625,0.8554687 -0.09375,-0.7382812 -0.703125,-0.8554687 -1.078125,-0.8554687 -0.8320313,0 -1.2773438,0.5859375 -1.4179688,0.7734375 -0.058594,-0.4804688 -0.421875,-0.7734375 -0.8671875,-0.7734375 -0.37499999,0 -0.56249999,0.28125 -0.69140624,0.515625 -0.15234375,0.3164062 -0.28125,0.8320312 -0.28125,0.8671875 0,0.082031 0.0703125,0.1054687 0.12890625,0.1054687 0.09375,0 0.1171875,-0.046875 0.1640625,-0.2226562 0.1640625,-0.7148438 0.3515625,-1.0429688 0.65624999,-1.0429688 0.2695313,0 0.2695313,0.28125 0.2695313,0.421875 0,0.1875 -0.070312,0.46875 -0.1171875,0.703125 -0.070312,0.234375 -0.1523438,0.609375 -0.1992188,0.7265625 l -0.35156249,1.46484379 c -0.0703125,0.2109375 -0.0703125,0.234375 -0.0703125,0.2578125 0,0.1171875 0.0820313,0.2578125 0.28124999,0.2578125 0.1289063,0 0.2578125,-0.0703125 0.328125,-0.1875 0.023437,-0.046875 0.09375,-0.33984375 0.140625,-0.515625 z m 0,0"
         style="fill:#000000;fill-opacity:1;fill-rule:nonzero;stroke:none" />
      <path
         id="path35"
         d="m 17.030968,-2.9658666 c 0.117187,0 0.292968,0 0.292968,-0.1875 0,-0.1992187 -0.199218,-0.1992187 -0.328125,-0.1992187 h -5.472656 c -0.140625,0 -0.328125,0 -0.328125,0.1992187 0,0.1875 0.175781,0.1875 0.292969,0.1875 z m -0.03516,1.828125 c 0.128907,0 0.328125,0 0.328125,-0.1992187 0,-0.1875 -0.175781,-0.1875 -0.292968,-0.1875 h -5.542969 c -0.117188,0 -0.292969,0 -0.292969,0.1875 0,0.1992187 0.1875,0.1992187 0.328125,0.1992187 z m 0,0"
         style="fill:#000000;fill-opacity:1;fill-rule:nonzero;stroke:none" />
      <path
         id="path36"
         d="m 23.816124,-5.4268041 c 0.09375,-0.3398437 0.117187,-0.421875 0.84375,-0.421875 0.164062,0 0.257812,0 0.257812,-0.1640625 0,-0.09375 -0.09375,-0.1054687 -0.140625,-0.1054687 -0.1875,0 -0.386718,0.011719 -0.574218,0.011719 -0.199219,0 -0.539063,0.011719 -0.609375,0.011719 -0.199219,0 -0.410157,-0.011719 -0.609375,-0.011719 -0.199219,0 -0.410157,-0.011719 -0.585938,-0.011719 -0.05859,0 -0.175781,0 -0.175781,0.1523437 0,0.1171875 0.08203,0.1171875 0.257812,0.1171875 0.199219,0 0.410157,0 0.585938,0.070312 0.01172,0.035156 0.01172,0.070312 0.01172,0.082031 0,0.035156 -0.01172,0.140625 -0.02344,0.1757812 l -1.21875,4.83984379 c -0.07031,0.31640625 -0.09375,0.3984375 -0.785156,0.3984375 -0.199219,0 -0.292969,0 -0.292969,0.1640625 0,0.046875 0.01172,0.1171875 0.128906,0.1171875 0.1875,0 0.375,-0.0234375 0.574219,-0.0234375 0.199219,0 0.410156,0 0.609375,0 0.210938,0 0.410156,0 0.621094,0 0.1875,0 0.398437,0.0234375 0.585937,0.0234375 0.05859,0 0.175782,0 0.175782,-0.1640625 0,-0.1171875 -0.09375,-0.1171875 -0.269532,-0.1171875 -0.339843,0 -0.597656,0 -0.597656,-0.15234375 0,-0.0703125 0,-0.0820313 0.03516,-0.2109375 z m 0,0"
         style="fill:#000000;fill-opacity:1;fill-rule:nonzero;stroke:none" />
    </g>
    <path
       id="path37"
       d="m 158.7423,0 c 0,25.04922 -7.61474,45.35506 -17.00826,45.35506 -9.39351,0 -17.00824,-20.30584 -17.00824,-45.35506 0,-25.04922 7.61473,-45.35506 17.00824,-45.35506 9.39352,0 17.00826,20.30584 17.00826,45.35506 z"
       style="fill:none;stroke:#000000;stroke-width:0.79701;stroke-linecap:butt;stroke-linejoin:miter;stroke-miterlimit:10;stroke-dasharray:2.98883, 2.98883;stroke-dashoffset:0;stroke-opacity:1"
       transform="matrix(1.3333333,0,0,-1.3333333,23.21216,167.30595)" />
    <g
       id="g37"
       aria-label="(0,0)"
       transform="matrix(1.3333333,0,0,1.3333333,311.92553,26.670853)">
      <path
         id="path38"
         d="m 3.0587797,2.1335787 c 0,-0.046875 -0.023437,-0.070312 -0.082031,-0.1289062 C 1.8165925,0.93826625 1.46503,-0.6672025 1.46503,-2.237515 c 0,-1.3945313 0.2695312,-3.0820313 1.5351562,-4.2773438 0.035156,-0.035156 0.058594,-0.070312 0.058594,-0.1054687 0,-0.070312 -0.046875,-0.1054688 -0.1054688,-0.1054688 -0.1054687,0 -0.9140625,0.6445313 -1.40625,1.6289063 -0.421875,0.8554687 -0.64453121,1.78125 -0.64453121,2.8476562 0,0.6445313 0.0820313,1.66406255 0.57421871,2.7304688 0.5273438,1.1015625 1.3710938,1.7460937 1.4765625,1.7460937 0.058594,0 0.1054688,-0.035156 0.1054683,-0.09375 z m 4.7607422,-5.0039062 c 0,-0.5976563 -0.023437,-1.3710938 -0.3398438,-2.0390625 -0.3984375,-0.84375 -1.078125,-1.0546875 -1.59375,-1.0546875 -0.5390625,0 -1.21875,0.2109375 -1.6171875,1.0664062 -0.2929687,0.6210938 -0.328125,1.3476563 -0.328125,2.0273438 0,0.5859375 0.011719,1.453125 0.3984375,2.16796875 0.421875,0.76171875 1.125,0.90234375 1.5351563,0.90234375 0.5859375,0 1.2421875,-0.2578125 1.6171875,-1.078125 0.2695312,-0.5976563 0.328125,-1.2773438 0.328125,-1.9921875 z m -1.9335938,2.84765625 c -0.2695312,0 -0.9140625,-0.12890625 -1.0898437,-1.13671875 -0.09375,-0.5390625 -0.09375,-1.3007813 -0.09375,-1.8164063 0,-0.609375 0,-1.3125 0.1171875,-1.8164062 0.1757812,-0.796875 0.75,-0.9492188 1.0546875,-0.9492188 0.3398437,0 0.9023437,0.1757813 1.078125,1.0078125 0.09375,0.4921875 0.09375,1.1953125 0.09375,1.7578125 0,0.5507813 0,1.3125 -0.09375,1.8398438 -0.1875,1.01953125 -0.84375,1.11328125 -1.0664063,1.11328125 z m 0,0"
         style="fill:#000000;fill-opacity:1;fill-rule:nonzero;stroke:none" />
      <path
         id="path39"
         d="m 9.8204984,-0.13985875 c 0,0.29296875 0,1.03125 -0.65625,1.66406245 -0.058594,0.058594 -0.058594,0.058594 -0.058594,0.09375 0,0.070312 0.058594,0.1171875 0.1171875,0.1171875 0.09375,0 0.8203131,-0.703125 0.8203131,-1.75781245 0,-0.55078125 -0.1875006,-0.94921875 -0.5742194,-0.94921875 -0.3046875,0 -0.4921875,0.234375 -0.4921875,0.4921875 0,0.24609375 0.1875,0.48046875 0.4921875,0.48046875 0.1289063,0 0.2695313,-0.046875 0.3515628,-0.140625 z m 0,0"
         style="fill:#000000;fill-opacity:1;fill-rule:nonzero;stroke:none" />
      <path
         id="path40"
         d="m 16.529483,-2.8703275 c 0,-0.5976563 -0.02344,-1.3710938 -0.339844,-2.0390625 -0.398437,-0.84375 -1.078125,-1.0546875 -1.59375,-1.0546875 -0.539062,0 -1.21875,0.2109375 -1.617187,1.0664062 -0.292969,0.6210938 -0.328125,1.3476563 -0.328125,2.0273438 0,0.5859375 0.01172,1.453125 0.398437,2.16796875 0.421875,0.76171875 1.125,0.90234375 1.535156,0.90234375 0.585938,0 1.242188,-0.2578125 1.617188,-1.078125 0.269531,-0.5976563 0.328125,-1.2773438 0.328125,-1.9921875 z m -1.933594,2.84765625 c -0.269531,0 -0.914062,-0.12890625 -1.089844,-1.13671875 -0.09375,-0.5390625 -0.09375,-1.3007813 -0.09375,-1.8164063 0,-0.609375 0,-1.3125 0.117188,-1.8164062 0.175781,-0.796875 0.75,-0.9492188 1.054687,-0.9492188 0.339844,0 0.902344,0.1757813 1.078125,1.0078125 0.09375,0.4921875 0.09375,1.1953125 0.09375,1.7578125 0,0.5507813 0,1.3125 -0.09375,1.8398438 -0.1875,1.01953125 -0.84375,1.11328125 -1.066406,1.11328125 z M 19.55878,-2.2492338 c 0,-0.7382812 -0.105469,-1.7226562 -0.574219,-2.71875 -0.527344,-1.1015625 -1.359375,-1.7578125 -1.464844,-1.7578125 -0.09375,0 -0.117187,0.070312 -0.117187,0.1054688 0,0.035156 0.02344,0.070312 0.08203,0.1289062 0.527344,0.46875 1.511719,1.6875 1.511719,4.2421875 0,1.2773438 -0.234375,3.07031255 -1.535157,4.2773438 -0.02344,0.023437 -0.05859,0.058594 -0.05859,0.1054687 0,0.023437 0.02344,0.09375 0.117187,0.09375 0.105469,0 0.914063,-0.6445312 1.394531,-1.61718745 0.433594,-0.85546875 0.644532,-1.78125005 0.644532,-2.85937505 z m 0,0"
         style="fill:#000000;fill-opacity:1;fill-rule:nonzero;stroke:none" />
    </g>
    <g
       id="g40"
       aria-label="(2,1)"
       transform="matrix(1.3333333,0,0,1.3333333,311.92553,87.144267)">
      <path
         id="path41"
         d="m 3.0587797,2.1330109 c 0,-0.046875 -0.023437,-0.070312 -0.082031,-0.1289062 C 1.8165925,0.93769844 1.46503,-0.66777031 1.46503,-2.2380828 c 0,-1.3945313 0.2695312,-3.0820313 1.5351562,-4.2773438 0.035156,-0.035156 0.058594,-0.070312 0.058594,-0.1054687 0,-0.070312 -0.046875,-0.1054688 -0.1054688,-0.1054688 -0.1054687,0 -0.9140625,0.6445313 -1.40625,1.6289063 -0.421875,0.8554687 -0.64453121,1.78125 -0.64453121,2.8476562 0,0.6445313 0.0820313,1.66406254 0.57421871,2.73046879 0.5273438,1.10156251 1.3710938,1.74609371 1.4765625,1.74609371 0.058594,0 0.1054688,-0.035156 0.1054683,-0.09375 z M 7.7140531,-1.5818328 H 7.4679594 c -0.023437,0.1171875 -0.09375,0.64453124 -0.2109375,0.78515624 -0.046875,0.0820313 -0.6679688,0.0820313 -0.84375,0.0820313 h -1.59375 L 5.6984281,-1.5583953 c 1.4765625,-1.2773438 2.015625,-1.7460938 2.015625,-2.6601563 0,-1.03125 -0.84375,-1.7460937 -1.9453125,-1.7460937 -1.03125,0 -1.734375,0.8085937 -1.734375,1.6289062 0,0.4453125 0.3867188,0.4921875 0.46875,0.4921875 0.1992188,0 0.46875,-0.140625 0.46875,-0.46875 0,-0.2695312 -0.1875,-0.46875 -0.46875,-0.46875 -0.046875,0 -0.070312,0 -0.1054687,0.011719 0.2109375,-0.6328125 0.7851562,-0.9257813 1.265625,-0.9257813 0.9140625,0 1.2304687,0.8554688 1.2304687,1.4765625 0,0.9140625 -0.6914062,1.6523438 -1.125,2.1210938 l -1.640625,1.76953124 c -0.09375,0.10546875 -0.09375,0.1171875 -0.09375,0.3281249975 h 3.4335938 z m 0,0"
         style="fill:#000000;fill-opacity:1;fill-rule:nonzero;stroke:none" />
      <path
         id="path42"
         d="m 9.8204984,-0.14042656 c 0,0.29296875 0,1.03125 -0.65625,1.66406246 -0.058594,0.058594 -0.058594,0.058594 -0.058594,0.09375 0,0.070312 0.058594,0.1171875 0.1171875,0.1171875 0.09375,0 0.8203131,-0.703125 0.8203131,-1.75781246 0,-0.55078125 -0.1875006,-0.94921875 -0.5742194,-0.94921875 -0.3046875,0 -0.4921875,0.234375 -0.4921875,0.4921875 0,0.24609375 0.1875,0.4804687475 0.4921875,0.4804687475 0.1289063,0 0.2695313,-0.0468749975 0.3515628,-0.1406249975 z m 0,0"
         style="fill:#000000;fill-opacity:1;fill-rule:nonzero;stroke:none" />
      <path
         id="path43"
         d="m 15.017764,-5.7302703 c 0,-0.2226563 -0.01172,-0.234375 -0.234375,-0.234375 -0.5625,0.5625 -1.382812,0.5625 -1.664062,0.5625 v 0.28125 c 0.175781,0 0.714843,0 1.207031,-0.234375 v 4.64062499 c 0,0.328125 -0.03516,0.43359375 -0.867188,0.43359375 H 13.17792 V 1.984375e-4 C 13.494327,-0.02323906 14.291202,-0.02323906 14.666202,-0.02323906 c 0.363281,0 1.171875,0 1.488281,0.0234374975 V -0.28105156 h -0.28125 c -0.832031,0 -0.855469,-0.10546875 -0.855469,-0.43359375 z m 4.541016,3.4804687 c 0,-0.7382812 -0.105469,-1.7226562 -0.574219,-2.71875 -0.527344,-1.1015625 -1.359375,-1.7578125 -1.464844,-1.7578125 -0.09375,0 -0.117187,0.070312 -0.117187,0.1054688 0,0.035156 0.02344,0.070312 0.08203,0.1289062 0.527344,0.46875 1.511719,1.6875 1.511719,4.2421875 0,1.27734379 -0.234375,3.07031254 -1.535157,4.2773438 -0.02344,0.023437 -0.05859,0.058594 -0.05859,0.1054687 0,0.023437 0.02344,0.09375 0.117187,0.09375 0.105469,0 0.914063,-0.6445312 1.394531,-1.61718746 0.433594,-0.85546875 0.644532,-1.78125004 0.644532,-2.85937504 z m 0,0"
         style="fill:#000000;fill-opacity:1;fill-rule:nonzero;stroke:none" />
    </g>
    <g
       id="g43"
       aria-label="(0,0)"
       transform="matrix(1.3333333,0,0,1.3333333,311.92553,132.49904)">
      <path
         id="path44"
         d="m 3.0587797,2.1335325 c 0,-0.046875 -0.023437,-0.070312 -0.082031,-0.1289062 -1.1601565,-1.0664063 -1.511719,-2.67187505 -1.511719,-4.2421875 0,-1.3945313 0.2695312,-3.0820313 1.5351562,-4.2773438 0.035156,-0.035156 0.058594,-0.070312 0.058594,-0.1054687 0,-0.070312 -0.046875,-0.1054688 -0.1054688,-0.1054688 -0.1054687,0 -0.9140625,0.6445313 -1.40625,1.6289063 -0.421875,0.8554687 -0.64453121,1.78125 -0.64453121,2.8476562 0,0.6445313 0.0820313,1.6640625 0.57421871,2.73046875 0.5273438,1.10156255 1.3710938,1.74609375 1.4765625,1.74609375 0.058594,0 0.1054688,-0.035156 0.1054686,-0.09375 z m 4.7607422,-5.0039062 c 0,-0.5976563 -0.023437,-1.3710938 -0.3398438,-2.0390625 -0.3984375,-0.84375 -1.078125,-1.0546875 -1.59375,-1.0546875 -0.5390625,0 -1.21875,0.2109375 -1.6171875,1.0664062 -0.2929687,0.6210938 -0.328125,1.3476563 -0.328125,2.0273438 0,0.5859375 0.011719,1.453125 0.3984375,2.1679687 0.421875,0.76171875 1.125,0.90234375 1.5351563,0.90234375 0.5859375,0 1.2421875,-0.2578125 1.6171875,-1.078125 C 7.7609281,-1.4758425 7.8195219,-2.15553 7.8195219,-2.8703737 Z m -1.9335938,2.8476562 c -0.2695312,0 -0.9140625,-0.12890625 -1.0898437,-1.1367187 -0.09375,-0.5390625 -0.09375,-1.3007813 -0.09375,-1.8164063 0,-0.609375 0,-1.3125 0.1171875,-1.8164062 0.1757812,-0.796875 0.75,-0.9492188 1.0546875,-0.9492188 0.3398437,0 0.9023437,0.1757813 1.078125,1.0078125 0.09375,0.4921875 0.09375,1.1953125 0.09375,1.7578125 0,0.5507813 0,1.3125 -0.09375,1.8398438 -0.1875,1.0195312 -0.84375,1.1132812 -1.0664063,1.1132812 z m 0,0"
         style="fill:#000000;fill-opacity:1;fill-rule:nonzero;stroke:none" />
      <path
         id="path45"
         d="m 9.8204984,-0.139905 c 0,0.29296875 0,1.03125 -0.65625,1.6640625 -0.058594,0.058594 -0.058594,0.058594 -0.058594,0.09375 0,0.070312 0.058594,0.1171875 0.1171875,0.1171875 0.09375,0 0.8203131,-0.703125 0.8203131,-1.7578125 0,-0.55078125 -0.1875006,-0.94921875 -0.5742194,-0.94921875 -0.3046875,0 -0.4921875,0.234375 -0.4921875,0.4921875 0,0.24609375 0.1875,0.48046875 0.4921875,0.48046875 0.1289063,0 0.2695313,-0.046875 0.3515628,-0.140625 z m 0,0"
         style="fill:#000000;fill-opacity:1;fill-rule:nonzero;stroke:none" />
      <path
         id="path46"
         d="m 16.529483,-2.8703737 c 0,-0.5976563 -0.02344,-1.3710938 -0.339844,-2.0390625 -0.398437,-0.84375 -1.078125,-1.0546875 -1.59375,-1.0546875 -0.539062,0 -1.21875,0.2109375 -1.617187,1.0664062 -0.292969,0.6210938 -0.328125,1.3476563 -0.328125,2.0273438 0,0.5859375 0.01172,1.453125 0.398437,2.1679687 0.421875,0.76171875 1.125,0.90234375 1.535156,0.90234375 0.585938,0 1.242188,-0.2578125 1.617188,-1.078125 0.269531,-0.59765625 0.328125,-1.27734375 0.328125,-1.99218745 z m -1.933594,2.8476562 c -0.269531,0 -0.914062,-0.12890625 -1.089844,-1.1367187 -0.09375,-0.5390625 -0.09375,-1.3007813 -0.09375,-1.8164063 0,-0.609375 0,-1.3125 0.117188,-1.8164062 0.175781,-0.796875 0.75,-0.9492188 1.054687,-0.9492188 0.339844,0 0.902344,0.1757813 1.078125,1.0078125 0.09375,0.4921875 0.09375,1.1953125 0.09375,1.7578125 0,0.5507813 0,1.3125 -0.09375,1.8398438 -0.1875,1.0195312 -0.84375,1.1132812 -1.066406,1.1132812 z M 19.55878,-2.24928 c 0,-0.7382812 -0.105469,-1.7226562 -0.574219,-2.71875 -0.527344,-1.1015625 -1.359375,-1.7578125 -1.464844,-1.7578125 -0.09375,0 -0.117187,0.070312 -0.117187,0.1054688 0,0.035156 0.02344,0.070312 0.08203,0.1289062 0.527344,0.46875 1.511719,1.6875 1.511719,4.2421875 0,1.27734375 -0.234375,3.0703125 -1.535157,4.2773438 -0.02344,0.023437 -0.05859,0.058594 -0.05859,0.1054687 0,0.023437 0.02344,0.09375 0.117187,0.09375 0.105469,0 0.914063,-0.6445312 1.394531,-1.6171875 0.433594,-0.85546875 0.644532,-1.78125 0.644532,-2.859375 z m 0,0"
         style="fill:#000000;fill-opacity:1;fill-rule:nonzero;stroke:none" />
    </g>
    <g
       id="g46"
       aria-label="(2,1)"
       transform="matrix(1.3333333,0,0,1.3333333,311.92553,177.8538)">
      <path
         id="path47"
         d="m 3.0587797,2.1340641 c 0,-0.046875 -0.023437,-0.070312 -0.082031,-0.1289063 C 1.8165925,0.93875156 1.46503,-0.66671719 1.46503,-2.2370297 c 0,-1.3945312 0.2695312,-3.0820312 1.5351562,-4.2773437 0.035156,-0.035156 0.058594,-0.070312 0.058594,-0.1054688 0,-0.070312 -0.046875,-0.1054687 -0.1054688,-0.1054687 -0.1054687,0 -0.9140625,0.6445312 -1.40625,1.6289062 -0.421875,0.8554688 -0.64453121,1.78125 -0.64453121,2.8476563 0,0.6445312 0.0820313,1.66406246 0.57421871,2.73046871 0.5273438,1.10156249 1.3710938,1.74609379 1.4765625,1.74609379 0.058594,0 0.1054688,-0.035156 0.1054683,-0.09375 z M 7.7140531,-1.5807797 H 7.4679594 c -0.023437,0.1171875 -0.09375,0.64453126 -0.2109375,0.78515626 -0.046875,0.0820313 -0.6679688,0.0820313 -0.84375,0.0820313 h -1.59375 L 5.6984281,-1.5573422 c 1.4765625,-1.2773437 2.015625,-1.7460937 2.015625,-2.6601562 0,-1.03125 -0.84375,-1.7460938 -1.9453125,-1.7460938 -1.03125,0 -1.734375,0.8085938 -1.734375,1.6289063 0,0.4453125 0.3867188,0.4921875 0.46875,0.4921875 0.1992188,0 0.46875,-0.140625 0.46875,-0.46875 0,-0.2695313 -0.1875,-0.46875 -0.46875,-0.46875 -0.046875,0 -0.070312,0 -0.1054687,0.011719 0.2109375,-0.6328125 0.7851562,-0.9257812 1.265625,-0.9257812 0.9140625,0 1.2304687,0.8554687 1.2304687,1.4765625 0,0.9140625 -0.6914062,1.6523437 -1.125,2.1210937 l -1.640625,1.76953126 c -0.09375,0.10546875 -0.09375,0.1171875 -0.09375,0.328125 h 3.4335938 z m 0,0"
         style="fill:#000000;fill-opacity:1;fill-rule:nonzero;stroke:none" />
      <path
         id="path48"
         d="m 9.8204984,-0.13937344 c 0,0.29296875 0,1.03125 -0.65625,1.66406254 -0.058594,0.058594 -0.058594,0.058594 -0.058594,0.09375 0,0.070312 0.058594,0.1171875 0.1171875,0.1171875 0.09375,0 0.8203131,-0.703125 0.8203131,-1.75781254 0,-0.55078125 -0.1875006,-0.94921875 -0.5742194,-0.94921875 -0.3046875,0 -0.4921875,0.234375 -0.4921875,0.4921875 0,0.24609375 0.1875,0.48046875 0.4921875,0.48046875 0.1289063,0 0.2695313,-0.046875 0.3515628,-0.140625 z m 0,0"
         style="fill:#000000;fill-opacity:1;fill-rule:nonzero;stroke:none" />
      <path
         id="path49"
         d="m 15.017764,-5.7292172 c 0,-0.2226562 -0.01172,-0.234375 -0.234375,-0.234375 -0.5625,0.5625 -1.382812,0.5625 -1.664062,0.5625 v 0.28125 c 0.175781,0 0.714843,0 1.207031,-0.234375 v 4.64062501 c 0,0.328125 -0.03516,0.43359375 -0.867188,0.43359375 h -0.28125 v 0.28125 c 0.316407,-0.0234375 1.113282,-0.0234375 1.488282,-0.0234375 0.363281,0 1.171875,0 1.488281,0.0234375 v -0.28125 h -0.28125 c -0.832031,0 -0.855469,-0.10546875 -0.855469,-0.43359375 z m 4.541016,3.4804688 c 0,-0.7382813 -0.105469,-1.7226563 -0.574219,-2.71875 -0.527344,-1.1015625 -1.359375,-1.7578125 -1.464844,-1.7578125 -0.09375,0 -0.117187,0.070312 -0.117187,0.1054687 0,0.035156 0.02344,0.070312 0.08203,0.1289063 0.527344,0.46875 1.511719,1.6875 1.511719,4.2421875 0,1.27734371 -0.234375,3.07031246 -1.535157,4.2773437 -0.02344,0.023437 -0.05859,0.058594 -0.05859,0.1054688 0,0.023437 0.02344,0.09375 0.117187,0.09375 0.105469,0 0.914063,-0.6445313 1.394531,-1.61718754 0.433594,-0.85546875 0.644532,-1.78124996 0.644532,-2.85937496 z m 0,0"
         style="fill:#000000;fill-opacity:1;fill-rule:nonzero;stroke:none" />
    </g>
    <g
       id="g49"
       aria-label="(1,2)"
       transform="matrix(1.3333333,0,0,1.3333333,311.92553,208.09051)">
      <path
         id="path50"
         d="m 3.0587797,2.1323153 c 0,-0.046875 -0.023437,-0.070312 -0.082031,-0.1289062 C 1.8165925,0.93700281 1.46503,-0.66846594 1.46503,-2.2387784 c 0,-1.3945313 0.2695312,-3.0820313 1.5351562,-4.2773438 0.035156,-0.035156 0.058594,-0.070312 0.058594,-0.1054687 0,-0.070312 -0.046875,-0.1054688 -0.1054688,-0.1054688 -0.1054687,0 -0.9140625,0.6445313 -1.40625,1.6289063 -0.421875,0.8554687 -0.64453121,1.78125 -0.64453121,2.8476562 0,0.6445313 0.0820313,1.66406251 0.57421871,2.73046876 0.5273438,1.10156254 1.3710938,1.74609374 1.4765625,1.74609374 0.058594,0 0.1054688,-0.035156 0.1054683,-0.09375 z m 3.2490234,-7.8632812 c 0,-0.2226563 -0.011719,-0.234375 -0.234375,-0.234375 -0.5625,0.5625 -1.3828125,0.5625 -1.6640625,0.5625 v 0.28125 c 0.1757813,0 0.7148438,0 1.2070313,-0.234375 v 4.64062496 c 0,0.328125 -0.035156,0.43359375 -0.8671875,0.43359375 h -0.28125 V -4.971875e-4 C 4.7843656,-0.02393469 5.5812406,-0.02393469 5.9562406,-0.02393469 c 0.3632813,0 1.171875,0 1.4882813,0.0234375025 V -0.28174719 h -0.28125 c -0.8320313,0 -0.8554688,-0.10546875 -0.8554688,-0.43359375 z m 0,0"
         style="fill:#000000;fill-opacity:1;fill-rule:nonzero;stroke:none" />
      <path
         id="path51"
         d="m 9.8204984,-0.14112219 c 0,0.29296875 0,1.03125 -0.65625,1.66406249 -0.058594,0.058594 -0.058594,0.058594 -0.058594,0.09375 0,0.070312 0.058594,0.1171875 0.1171875,0.1171875 0.09375,0 0.8203131,-0.703125 0.8203131,-1.75781249 0,-0.55078125 -0.1875006,-0.94921875 -0.5742194,-0.94921875 -0.3046875,0 -0.4921875,0.234375 -0.4921875,0.4921875 0,0.24609375 0.1875,0.4804687525 0.4921875,0.4804687525 0.1289063,0 0.2695313,-0.0468750025 0.3515628,-0.1406250025 z m 0,0"
         style="fill:#000000;fill-opacity:1;fill-rule:nonzero;stroke:none" />
      <path
         id="path52"
         d="M 16.424014,-1.5825284 H 16.17792 c -0.02344,0.1171875 -0.09375,0.64453121 -0.210937,0.78515621 -0.04687,0.0820313 -0.667969,0.0820313 -0.84375,0.0820313 h -1.59375 l 0.878906,-0.84374991 c 1.476563,-1.2773439 2.015625,-1.7460939 2.015625,-2.6601563 0,-1.03125 -0.84375,-1.7460938 -1.945312,-1.7460938 -1.03125,0 -1.734375,0.8085938 -1.734375,1.6289063 0,0.4453124 0.386718,0.4921874 0.46875,0.4921874 0.199218,0 0.46875,-0.140625 0.46875,-0.4687499 0,-0.2695313 -0.1875,-0.46875 -0.46875,-0.46875 -0.04687,0 -0.07031,0 -0.105469,0.011719 0.210937,-0.6328125 0.785156,-0.9257813 1.265625,-0.9257813 0.914062,0 1.230469,0.8554688 1.230469,1.4765625 0,0.9140625 -0.691407,1.6523437 -1.125,2.1210938 l -1.640625,1.76953116 c -0.09375,0.10546875 -0.09375,0.1171875 -0.09375,0.3281250025 h 3.433593 z m 3.134766,-0.6679688 c 0,-0.7382812 -0.105469,-1.7226562 -0.574219,-2.71875 -0.527344,-1.1015625 -1.359375,-1.7578125 -1.464844,-1.7578125 -0.09375,0 -0.117187,0.070312 -0.117187,0.1054688 0,0.035156 0.02344,0.070312 0.08203,0.1289062 0.527344,0.46875 1.511719,1.6875 1.511719,4.2421875 0,1.27734376 -0.234375,3.07031251 -1.535157,4.2773438 -0.02344,0.023437 -0.05859,0.058594 -0.05859,0.1054687 0,0.023437 0.02344,0.09375 0.117187,0.09375 0.105469,0 0.914063,-0.6445312 1.394531,-1.61718749 0.433594,-0.85546875 0.644532,-1.78125001 0.644532,-2.85937501 z m 0,0"
         style="fill:#000000;fill-opacity:1;fill-rule:nonzero;stroke:none" />
    </g>
    <g
       id="g52"
       aria-label="(1,1)"
       transform="matrix(1.3333333,0,0,1.3333333,311.92553,253.44528)">
      <path
         id="path53"
         d="m 3.0587797,2.1328369 c 0,-0.046875 -0.023437,-0.070312 -0.082031,-0.1289063 C 1.8165925,0.93752438 1.46503,-0.66794437 1.46503,-2.2382569 c 0,-1.3945312 0.2695312,-3.0820312 1.5351562,-4.2773437 0.035156,-0.035156 0.058594,-0.070312 0.058594,-0.1054688 0,-0.070312 -0.046875,-0.1054687 -0.1054688,-0.1054687 -0.1054687,0 -0.9140625,0.6445312 -1.40625,1.6289062 -0.421875,0.8554688 -0.64453121,1.78125 -0.64453121,2.8476563 0,0.6445312 0.0820313,1.66406248 0.57421871,2.73046873 0.5273438,1.10156247 1.3710938,1.74609377 1.4765625,1.74609377 0.058594,0 0.1054688,-0.035156 0.1054683,-0.09375 z m 3.2490234,-7.8632813 c 0,-0.2226562 -0.011719,-0.234375 -0.234375,-0.234375 -0.5625,0.5625 -1.3828125,0.5625 -1.6640625,0.5625 v 0.28125 c 0.1757813,0 0.7148438,0 1.2070313,-0.234375 v 4.64062503 c 0,0.328125 -0.035156,0.43359375 -0.8671875,0.43359375 h -0.28125 V 2.4375e-5 C 4.7843656,-0.02341312 5.5812406,-0.02341312 5.9562406,-0.02341312 c 0.3632813,0 1.171875,0 1.4882813,0.023437495 V -0.28122562 h -0.28125 c -0.8320313,0 -0.8554688,-0.10546875 -0.8554688,-0.43359375 z m 0,0"
         style="fill:#000000;fill-opacity:1;fill-rule:nonzero;stroke:none" />
      <path
         id="path54"
         d="m 9.8204984,-0.14060062 c 0,0.29296875 0,1.03125 -0.65625,1.66406252 -0.058594,0.058594 -0.058594,0.058594 -0.058594,0.09375 0,0.070312 0.058594,0.1171875 0.1171875,0.1171875 0.09375,0 0.8203131,-0.703125 0.8203131,-1.75781252 0,-0.55078125 -0.1875006,-0.94921875 -0.5742194,-0.94921875 -0.3046875,0 -0.4921875,0.234375 -0.4921875,0.4921875 0,0.24609375 0.1875,0.480468745 0.4921875,0.480468745 0.1289063,0 0.2695313,-0.046874995 0.3515628,-0.140624995 z m 0,0"
         style="fill:#000000;fill-opacity:1;fill-rule:nonzero;stroke:none" />
      <path
         id="path55"
         d="m 15.017764,-5.7304444 c 0,-0.2226562 -0.01172,-0.234375 -0.234375,-0.234375 -0.5625,0.5625 -1.382812,0.5625 -1.664062,0.5625 v 0.28125 c 0.175781,0 0.714843,0 1.207031,-0.234375 v 4.64062503 c 0,0.328125 -0.03516,0.43359375 -0.867188,0.43359375 H 13.17792 V 2.4375e-5 c 0.316407,-0.023437495 1.113282,-0.023437495 1.488282,-0.023437495 0.363281,0 1.171875,0 1.488281,0.023437495 V -0.28122562 h -0.28125 c -0.832031,0 -0.855469,-0.10546875 -0.855469,-0.43359375 z m 4.541016,3.4804688 c 0,-0.7382813 -0.105469,-1.7226563 -0.574219,-2.71875 -0.527344,-1.1015625 -1.359375,-1.7578125 -1.464844,-1.7578125 -0.09375,0 -0.117187,0.070312 -0.117187,0.1054687 0,0.035156 0.02344,0.070312 0.08203,0.1289063 0.527344,0.46875 1.511719,1.6875 1.511719,4.2421875 0,1.27734373 -0.234375,3.07031248 -1.535157,4.2773437 -0.02344,0.023437 -0.05859,0.058594 -0.05859,0.1054688 0,0.023437 0.02344,0.09375 0.117187,0.09375 0.105469,0 0.914063,-0.6445313 1.394531,-1.61718752 0.433594,-0.85546875 0.644532,-1.78124998 0.644532,-2.85937498 z m 0,0"
         style="fill:#000000;fill-opacity:1;fill-rule:nonzero;stroke:none" />
    </g>
    <g
       id="g55"
       aria-label="(0,0)"
       transform="matrix(1.3333333,0,0,1.3333333,311.92553,291.24104)">
      <path
         id="path56"
         d="m 3.0587797,2.1336731 c 0,-0.046875 -0.023437,-0.070312 -0.082031,-0.1289062 C 1.8165925,0.93836063 1.46503,-0.66710812 1.46503,-2.2374206 c 0,-1.3945313 0.2695312,-3.0820313 1.5351562,-4.2773438 0.035156,-0.035156 0.058594,-0.070312 0.058594,-0.1054687 0,-0.070312 -0.046875,-0.1054688 -0.1054688,-0.1054688 -0.1054687,0 -0.9140625,0.6445313 -1.40625,1.6289063 -0.421875,0.8554687 -0.64453121,1.78125 -0.64453121,2.8476562 0,0.6445313 0.0820313,1.66406253 0.57421871,2.73046878 0.5273438,1.10156252 1.3710938,1.74609372 1.4765625,1.74609372 0.058594,0 0.1054688,-0.035156 0.1054683,-0.09375 z m 4.7607422,-5.0039062 c 0,-0.5976563 -0.023437,-1.3710938 -0.3398438,-2.0390625 -0.3984375,-0.84375 -1.078125,-1.0546875 -1.59375,-1.0546875 -0.5390625,0 -1.21875,0.2109375 -1.6171875,1.0664062 -0.2929687,0.6210938 -0.328125,1.3476563 -0.328125,2.0273438 0,0.5859375 0.011719,1.453125 0.3984375,2.16796873 0.421875,0.76171875 1.125,0.90234375 1.5351563,0.90234375 0.5859375,0 1.2421875,-0.2578125 1.6171875,-1.078125 0.2695312,-0.59765628 0.328125,-1.27734378 0.328125,-1.99218748 z m -1.9335938,2.84765623 c -0.2695312,0 -0.9140625,-0.12890625 -1.0898437,-1.13671873 -0.09375,-0.5390625 -0.09375,-1.3007813 -0.09375,-1.8164063 0,-0.609375 0,-1.3125 0.1171875,-1.8164062 0.1757812,-0.796875 0.75,-0.9492188 1.0546875,-0.9492188 0.3398437,0 0.9023437,0.1757813 1.078125,1.0078125 0.09375,0.4921875 0.09375,1.1953125 0.09375,1.7578125 0,0.5507813 0,1.3125 -0.09375,1.8398438 -0.1875,1.01953123 -0.84375,1.11328123 -1.0664063,1.11328123 z m 0,0"
         style="fill:#000000;fill-opacity:1;fill-rule:nonzero;stroke:none" />
      <path
         id="path57"
         d="m 9.8204984,-0.13976437 c 0,0.29296875 0,1.03125 -0.65625,1.66406247 -0.058594,0.058594 -0.058594,0.058594 -0.058594,0.09375 0,0.070312 0.058594,0.1171875 0.1171875,0.1171875 0.09375,0 0.8203131,-0.703125 0.8203131,-1.75781247 0,-0.55078125 -0.1875006,-0.94921875 -0.5742194,-0.94921875 -0.3046875,0 -0.4921875,0.234375 -0.4921875,0.4921875 0,0.24609375 0.1875,0.480468745 0.4921875,0.480468745 0.1289063,0 0.2695313,-0.046874995 0.3515628,-0.140624995 z m 0,0"
         style="fill:#000000;fill-opacity:1;fill-rule:nonzero;stroke:none" />
      <path
         id="path58"
         d="m 16.529483,-2.8702331 c 0,-0.5976563 -0.02344,-1.3710938 -0.339844,-2.0390625 -0.398437,-0.84375 -1.078125,-1.0546875 -1.59375,-1.0546875 -0.539062,0 -1.21875,0.2109375 -1.617187,1.0664062 -0.292969,0.6210938 -0.328125,1.3476563 -0.328125,2.0273438 0,0.5859375 0.01172,1.453125 0.398437,2.16796873 0.421875,0.76171875 1.125,0.90234375 1.535156,0.90234375 0.585938,0 1.242188,-0.2578125 1.617188,-1.078125 0.269531,-0.59765628 0.328125,-1.27734378 0.328125,-1.99218748 z m -1.933594,2.84765623 c -0.269531,0 -0.914062,-0.12890625 -1.089844,-1.13671873 -0.09375,-0.5390625 -0.09375,-1.3007813 -0.09375,-1.8164063 0,-0.609375 0,-1.3125 0.117188,-1.8164062 0.175781,-0.796875 0.75,-0.9492188 1.054687,-0.9492188 0.339844,0 0.902344,0.1757813 1.078125,1.0078125 0.09375,0.4921875 0.09375,1.1953125 0.09375,1.7578125 0,0.5507813 0,1.3125 -0.09375,1.8398438 -0.1875,1.01953123 -0.84375,1.11328123 -1.066406,1.11328123 z M 19.55878,-2.2491394 c 0,-0.7382812 -0.105469,-1.7226562 -0.574219,-2.71875 -0.527344,-1.1015625 -1.359375,-1.7578125 -1.464844,-1.7578125 -0.09375,0 -0.117187,0.070312 -0.117187,0.1054688 0,0.035156 0.02344,0.070312 0.08203,0.1289062 0.527344,0.46875 1.511719,1.6875 1.511719,4.2421875 0,1.27734378 -0.234375,3.07031253 -1.535157,4.2773438 -0.02344,0.023437 -0.05859,0.058594 -0.05859,0.1054687 0,0.023437 0.02344,0.09375 0.117187,0.09375 0.105469,0 0.914063,-0.6445312 1.394531,-1.61718747 0.433594,-0.85546875 0.644532,-1.78125003 0.644532,-2.85937503 z m 0,0"
         style="fill:#000000;fill-opacity:1;fill-rule:nonzero;stroke:none" />
    </g>
    <g
       id="g58"
       aria-label="(2,1)"
       transform="matrix(1.3333333,0,0,1.3333333,311.92553,336.59581)">
      <path
         id="path59"
         d="m 3.0587797,2.1341947 c 0,-0.046875 -0.023437,-0.070312 -0.082031,-0.1289063 C 1.8165925,0.93888219 1.46503,-0.66658656 1.46503,-2.2368991 c 0,-1.3945312 0.2695312,-3.0820312 1.5351562,-4.2773437 0.035156,-0.035156 0.058594,-0.070312 0.058594,-0.1054688 0,-0.070312 -0.046875,-0.1054687 -0.1054688,-0.1054687 -0.1054687,0 -0.9140625,0.6445312 -1.40625,1.6289062 -0.421875,0.8554688 -0.64453121,1.78125 -0.64453121,2.8476563 0,0.6445312 0.0820313,1.66406249 0.57421871,2.73046874 0.5273438,1.10156246 1.3710938,1.74609376 1.4765625,1.74609376 0.058594,0 0.1054688,-0.035156 0.1054683,-0.09375 z M 7.7140531,-1.5806491 H 7.4679594 c -0.023437,0.1171875 -0.09375,0.64453129 -0.2109375,0.78515629 -0.046875,0.0820313 -0.6679688,0.0820313 -0.84375,0.0820313 h -1.59375 L 5.6984281,-1.5572116 c 1.4765625,-1.2773437 2.015625,-1.7460937 2.015625,-2.6601562 0,-1.03125 -0.84375,-1.7460938 -1.9453125,-1.7460938 -1.03125,0 -1.734375,0.8085938 -1.734375,1.6289063 0,0.4453125 0.3867188,0.4921875 0.46875,0.4921875 0.1992188,0 0.46875,-0.140625 0.46875,-0.46875 0,-0.2695313 -0.1875,-0.46875 -0.46875,-0.46875 -0.046875,0 -0.070312,0 -0.1054687,0.011719 0.2109375,-0.6328125 0.7851562,-0.9257812 1.265625,-0.9257812 0.9140625,0 1.2304687,0.8554687 1.2304687,1.4765625 0,0.9140625 -0.6914062,1.6523437 -1.125,2.1210937 l -1.640625,1.76953129 c -0.09375,0.10546875 -0.09375,0.1171875 -0.09375,0.328125 h 3.4335938 z m 0,0"
         style="fill:#000000;fill-opacity:1;fill-rule:nonzero;stroke:none" />
      <path
         id="path60"
         d="m 9.8204984,-0.13924281 c 0,0.29296875 0,1.03125 -0.65625,1.66406251 -0.058594,0.058594 -0.058594,0.058594 -0.058594,0.09375 0,0.070312 0.058594,0.1171875 0.1171875,0.1171875 0.09375,0 0.8203131,-0.703125 0.8203131,-1.75781251 0,-0.55078125 -0.1875006,-0.94921875 -0.5742194,-0.94921875 -0.3046875,0 -0.4921875,0.234375 -0.4921875,0.4921875 0,0.24609375 0.1875,0.48046875 0.4921875,0.48046875 0.1289063,0 0.2695313,-0.046875 0.3515628,-0.140625 z m 0,0"
         style="fill:#000000;fill-opacity:1;fill-rule:nonzero;stroke:none" />
      <path
         id="path61"
         d="m 15.017764,-5.7290866 c 0,-0.2226562 -0.01172,-0.234375 -0.234375,-0.234375 -0.5625,0.5625 -1.382812,0.5625 -1.664062,0.5625 v 0.28125 c 0.175781,0 0.714843,0 1.207031,-0.234375 v 4.64062504 c 0,0.328125 -0.03516,0.43359375 -0.867188,0.43359375 h -0.28125 v 0.28125 c 0.316407,-0.0234375 1.113282,-0.0234375 1.488282,-0.0234375 0.363281,0 1.171875,0 1.488281,0.0234375 v -0.28125 h -0.28125 c -0.832031,0 -0.855469,-0.10546875 -0.855469,-0.43359375 z m 4.541016,3.4804688 c 0,-0.7382813 -0.105469,-1.7226563 -0.574219,-2.71875 -0.527344,-1.1015625 -1.359375,-1.7578125 -1.464844,-1.7578125 -0.09375,0 -0.117187,0.070312 -0.117187,0.1054687 0,0.035156 0.02344,0.070312 0.08203,0.1289063 0.527344,0.46875 1.511719,1.6875 1.511719,4.2421875 0,1.27734374 -0.234375,3.07031249 -1.535157,4.2773437 -0.02344,0.023437 -0.05859,0.058594 -0.05859,0.1054688 0,0.023437 0.02344,0.09375 0.117187,0.09375 0.105469,0 0.914063,-0.6445313 1.394531,-1.61718751 0.433594,-0.85546875 0.644532,-1.78124999 0.644532,-2.85937499 z m 0,0"
         style="fill:#000000;fill-opacity:1;fill-rule:nonzero;stroke:none" />
    </g>
    <path
       id="path62"
       d="m 148.45163,86.83202 64.56358,17.22064"
       style="fill:none;stroke:#000000;stroke-width:0.79701;stroke-linecap:butt;stroke-linejoin:miter;stroke-miterlimit:10;stroke-dasharray:none;stroke-opacity:1"
       transform="matrix(1.3333333,0,0,-1.3333333,23.21216,167.30595)" />
    <path
       id="path63"
       d="M 6.5630834,-6.771875e-4 V -0.28192719 H 6.3521459 c -0.6914062,0 -0.703125,-0.09375 -0.703125,-0.421875 V -5.4147397 c 0,-0.328125 0.011719,-0.4335937 0.703125,-0.4335937 h 0.2109375 v -0.2695313 c -0.3984375,0.023437 -0.9023437,0.023437 -1.3125,0.023437 -0.421875,0 -0.9257812,0 -1.3242187,-0.023437 v 0.2695313 h 0.2109375 c 0.6914062,0 0.703125,0.1054687 0.703125,0.4335937 v 2.0859375 H 2.0630834 v -2.0859375 c 0,-0.328125 0.011719,-0.4335937 0.703125,-0.4335937 h 0.2109375 v -0.2695313 c -0.3984375,0.023437 -0.9023437,0.023437 -1.3125,0.023437 -0.421875,0 -0.92578121,0 -1.32421871,-0.023437 v 0.2695313 h 0.2109375 c 0.69140621,0 0.70312501,0.1054687 0.70312501,0.4335937 v 4.71093751 c 0,0.328125 -0.011719,0.421875 -0.70312501,0.421875 H 0.34042719 V -6.771875e-4 C 0.73886469,-0.02411469 1.2427709,-0.02411469 1.6646459,-0.02411469 c 0.4101563,0 0.9140625,0 1.3125,0.0234375025 V -0.28192719 H 2.7662084 c -0.6914062,0 -0.703125,-0.09375 -0.703125,-0.421875 V -3.0475522 h 2.7773438 v 2.34375001 c 0,0.328125 -0.011719,0.421875 -0.703125,0.421875 H 3.9263647 V -6.771875e-4 C 4.3248022,-0.02411469 4.8287084,-0.02411469 5.2505834,-0.02411469 c 0.4101563,0 0.9140625,0 1.3125,0.0234375025 z m 0,0"
       style="fill:#000000;fill-opacity:1;fill-rule:nonzero;stroke:none"
       aria-label="H"
       transform="matrix(1.3333333,0,0,1.3333333,259.58125,35.090747)" />
    <path
       id="path64"
       d="M 148.45163,83.24883 213.01521,66.02817"
       style="fill:none;stroke:#000000;stroke-width:0.79701;stroke-linecap:butt;stroke-linejoin:miter;stroke-miterlimit:10;stroke-dasharray:none;stroke-opacity:1"
       transform="matrix(1.3333333,0,0,-1.3333333,23.21216,167.30595)" />
    <path
       id="path65"
       d="m 6.5145053,-3.0103319 c 0,-1.6992187 -1.2421875,-3.1054687 -2.8242187,-3.1054687 H 0.36216156 v 0.2695312 h 0.19921875 c 0.69140629,0 0.71484379,0.1054688 0.71484379,0.4335938 v 4.71093747 c 0,0.328125 -0.023437,0.421875 -0.71484379,0.421875 H 0.36216156 v 0.28125 H 3.6902866 c 1.5585937,0 2.8242187,-1.32421877 2.8242187,-3.01171877 z m -0.890625,0 c 0,0.3632813 0,1.3125 -0.4921875,1.9335938 -0.4570312,0.60937497 -1.1132812,0.79687497 -1.6757812,0.79687497 H 2.4949741 c -0.421875,0 -0.4453125,-0.0585938 -0.4453125,-0.36328125 V -5.4712694 c 0,-0.3046875 0.023437,-0.375 0.4453125,-0.375 h 0.9609375 c 0.8671875,0 1.40625,0.4570313 1.640625,0.7851563 0.3984375,0.515625 0.5273437,1.1601562 0.5273437,2.0507812 z m 0,0"
       style="fill:#000000;fill-opacity:1;fill-rule:nonzero;stroke:none"
       aria-label="D"
       transform="matrix(1.3333333,0,0,1.3333333,259.49759,80.912213)" />
    <path
       id="path66"
       d="m 148.68661,28.3468 h 64.3286"
       style="fill:none;stroke:#000000;stroke-width:0.79701;stroke-linecap:butt;stroke-linejoin:miter;stroke-miterlimit:10;stroke-dasharray:none;stroke-opacity:1"
       transform="matrix(1.3333333,0,0,-1.3333333,23.21216,167.30595)" />
    <path
       id="path67"
       d="M 6.5627609,-5.040625e-4 V -0.28175406 H 6.3518234 c -0.6914062,0 -0.703125,-0.09375 -0.703125,-0.421875 V -5.4145666 c 0,-0.328125 0.011719,-0.4335937 0.703125,-0.4335937 h 0.2109375 v -0.2695313 c -0.3984375,0.023437 -0.9023437,0.023437 -1.3125,0.023437 -0.421875,0 -0.9257812,0 -1.3242187,-0.023437 v 0.2695313 h 0.2109375 c 0.6914062,0 0.703125,0.1054687 0.703125,0.4335937 v 2.0859375 H 2.0627609 v -2.0859375 c 0,-0.328125 0.011719,-0.4335937 0.703125,-0.4335937 h 0.2109375 v -0.2695313 c -0.3984375,0.023437 -0.9023437,0.023437 -1.3125,0.023437 -0.421875,0 -0.92578121,0 -1.32421871,-0.023437 v 0.2695313 h 0.2109375 c 0.69140621,0 0.70312501,0.1054687 0.70312501,0.4335937 v 4.71093754 c 0,0.328125 -0.011719,0.421875 -0.70312501,0.421875 H 0.34010469 V -5.040625e-4 C 0.73854219,-0.02394156 1.2424484,-0.02394156 1.6643234,-0.02394156 c 0.4101563,0 0.9140625,0 1.3125,0.0234374975 V -0.28175406 H 2.7658859 c -0.6914062,0 -0.703125,-0.09375 -0.703125,-0.421875 V -3.0473791 h 2.7773438 v 2.34375004 c 0,0.328125 -0.011719,0.421875 -0.703125,0.421875 H 3.9260422 V -5.040625e-4 C 4.3244797,-0.02394156 4.8283859,-0.02394156 5.2502609,-0.02394156 c 0.4101563,0 0.9140625,0 1.3125,0.0234374975 z m 0,0"
       style="fill:#000000;fill-opacity:1;fill-rule:nonzero;stroke:none"
       aria-label="H"
       transform="matrix(1.3333333,0,0,1.3333333,259.73793,124.55145)" />
    <path
       id="path68"
       d="M 148.18884,25.7644 213.01521,-0.17133"
       style="fill:none;stroke:#000000;stroke-width:0.79701;stroke-linecap:butt;stroke-linejoin:miter;stroke-miterlimit:10;stroke-dasharray:none;stroke-opacity:1"
       transform="matrix(1.3333333,0,0,-1.3333333,23.21216,167.30595)" />
    <path
       id="path69"
       d="m 6.5169991,-3.0124381 c 0,-1.6992188 -1.2421875,-3.1054688 -2.8242188,-3.1054688 H 0.36465531 v 0.2695313 h 0.19921875 c 0.69140624,0 0.71484374,0.1054687 0.71484374,0.4335937 v 4.71093752 c 0,0.328125 -0.023437,0.421875 -0.71484374,0.421875 H 0.36465531 V -7.19375e-4 H 3.6927803 c 1.5585938,0 2.8242188,-1.324218725 2.8242188,-3.011718725 z m -0.890625,0 c 0,0.3632812 0,1.3125 -0.4921875,1.9335937 -0.4570313,0.60937502 -1.1132813,0.79687502 -1.6757813,0.79687502 H 2.4974678 c -0.421875,0 -0.4453125,-0.0585938 -0.4453125,-0.36328125 V -5.4733756 c 0,-0.3046875 0.023437,-0.375 0.4453125,-0.375 h 0.9609375 c 0.8671875,0 1.40625,0.4570312 1.640625,0.7851562 0.3984375,0.515625 0.5273438,1.1601563 0.5273438,2.0507813 z m 0,0"
       style="fill:#000000;fill-opacity:1;fill-rule:nonzero;stroke:none"
       aria-label="D"
       transform="matrix(1.3333333,0,0,1.3333333,259.32239,163.36815)" />
    <path
       id="path70"
       d="m 148.68661,-28.3468 h 64.3286"
       style="fill:none;stroke:#000000;stroke-width:0.79701;stroke-linecap:butt;stroke-linejoin:miter;stroke-miterlimit:10;stroke-dasharray:none;stroke-opacity:1"
       transform="matrix(1.3333333,0,0,-1.3333333,23.21216,167.30595)" />
    <path
       id="path71"
       d="m 6.5627609,0.00120844 v -0.28125 H 6.3518234 c -0.6914062,0 -0.703125,-0.09375 -0.703125,-0.421875 V -5.4128541 c 0,-0.328125 0.011719,-0.4335937 0.703125,-0.4335937 h 0.2109375 v -0.2695313 c -0.3984375,0.023437 -0.9023437,0.023437 -1.3125,0.023437 -0.421875,0 -0.9257812,0 -1.3242187,-0.023437 v 0.2695313 h 0.2109375 c 0.6914062,0 0.703125,0.1054687 0.703125,0.4335937 v 2.0859375 H 2.0627609 v -2.0859375 c 0,-0.328125 0.011719,-0.4335937 0.703125,-0.4335937 h 0.2109375 v -0.2695313 c -0.3984375,0.023437 -0.9023437,0.023437 -1.3125,0.023437 -0.421875,0 -0.92578121,0 -1.32421871,-0.023437 v 0.2695313 h 0.2109375 c 0.69140621,0 0.70312501,0.1054687 0.70312501,0.4335937 v 4.71093754 c 0,0.328125 -0.011719,0.421875 -0.70312501,0.421875 h -0.2109375 v 0.28125 c 0.3984375,-0.0234375 0.90234371,-0.0234375 1.32421871,-0.0234375 0.4101563,0 0.9140625,0 1.3125,0.0234375 v -0.28125 H 2.7658859 c -0.6914062,0 -0.703125,-0.09375 -0.703125,-0.421875 V -3.0456666 h 2.7773438 v 2.34375004 c 0,0.328125 -0.011719,0.421875 -0.703125,0.421875 H 3.9260422 v 0.28125 c 0.3984375,-0.0234375 0.9023437,-0.0234375 1.3242187,-0.0234375 0.4101563,0 0.9140625,0 1.3125,0.0234375 z m 0,0"
       style="fill:#000000;fill-opacity:1;fill-rule:nonzero;stroke:none"
       aria-label="H"
       transform="matrix(1.3333333,0,0,1.3333333,259.73793,200.14292)" />
    <path
       id="path72"
       d="m 148.18884,-30.9292 64.82637,-25.93574"
       style="fill:none;stroke:#000000;stroke-width:0.79701;stroke-linecap:butt;stroke-linejoin:miter;stroke-miterlimit:10;stroke-dasharray:none;stroke-opacity:1"
       transform="matrix(1.3333333,0,0,-1.3333333,23.21216,167.30595)" />
    <path
       id="path73"
       d="m 6.5169991,-3.0107256 c 0,-1.6992188 -1.2421875,-3.1054688 -2.8242188,-3.1054688 H 0.36465531 v 0.2695313 h 0.19921875 c 0.69140624,0 0.71484374,0.1054687 0.71484374,0.4335937 v 4.71093753 c 0,0.328125 -0.023437,0.421875 -0.71484374,0.421875 H 0.36465531 V 9.93125e-4 H 3.6927803 c 1.5585938,0 2.8242188,-1.324218725 2.8242188,-3.011718725 z m -0.890625,0 c 0,0.3632812 0,1.3125 -0.4921875,1.9335937 -0.4570313,0.60937503 -1.1132813,0.79687503 -1.6757813,0.79687503 H 2.4974678 c -0.421875,0 -0.4453125,-0.0585938 -0.4453125,-0.36328125 V -5.4716631 c 0,-0.3046875 0.023437,-0.375 0.4453125,-0.375 h 0.9609375 c 0.8671875,0 1.40625,0.4570312 1.640625,0.7851562 0.3984375,0.515625 0.5273438,1.1601563 0.5273438,2.0507813 z m 0,0"
       style="fill:#000000;fill-opacity:1;fill-rule:nonzero;stroke:none"
       aria-label="D"
       transform="matrix(1.3333333,0,0,1.3333333,259.32239,238.95961)" />
    <path
       id="path74"
       d="m 148.67091,-85.50296 64.3443,-4.29053"
       style="fill:none;stroke:#000000;stroke-width:0.79701;stroke-linecap:butt;stroke-linejoin:miter;stroke-miterlimit:10;stroke-dasharray:none;stroke-opacity:1"
       transform="matrix(1.3333333,0,0,-1.3333333,23.21216,167.30595)" />
    <path
       id="path75"
       d="M 6.5618319,-3.96875e-4 V -0.28164687 H 6.3508944 c -0.6914063,0 -0.703125,-0.09375 -0.703125,-0.421875 V -5.4144594 c 0,-0.328125 0.011719,-0.4335937 0.703125,-0.4335937 h 0.2109375 v -0.2695313 c -0.3984375,0.023437 -0.9023438,0.023437 -1.3125,0.023437 -0.421875,0 -0.9257813,0 -1.3242188,-0.023437 v 0.2695313 h 0.2109375 c 0.6914063,0 0.703125,0.1054687 0.703125,0.4335937 v 2.0859375 H 2.0618319 v -2.0859375 c 0,-0.328125 0.011719,-0.4335937 0.703125,-0.4335937 h 0.2109375 v -0.2695313 c -0.3984375,0.023437 -0.9023438,0.023437 -1.3125,0.023437 -0.421875,0 -0.92578128,0 -1.32421878,-0.023437 v 0.2695313 h 0.2109375 c 0.69140628,0 0.70312498,0.1054687 0.70312498,0.4335937 v 4.71093753 c 0,0.328125 -0.011719,0.421875 -0.70312498,0.421875 H 0.33917562 V -3.96875e-4 C 0.73761312,-0.02383437 1.2415194,-0.02383437 1.6633944,-0.02383437 c 0.4101562,0 0.9140625,0 1.3125,0.023437495 V -0.28164687 H 2.7649569 c -0.6914063,0 -0.703125,-0.09375 -0.703125,-0.421875 V -3.0472719 h 2.7773437 v 2.34375003 c 0,0.328125 -0.011719,0.421875 -0.703125,0.421875 H 3.9251131 V -3.96875e-4 C 4.3235506,-0.02383437 4.8274569,-0.02383437 5.2493319,-0.02383437 c 0.4101562,0 0.9140625,0 1.3125,0.023437495 z m 0,0"
       style="fill:#000000;fill-opacity:1;fill-rule:nonzero;stroke:none"
       aria-label="H"
       transform="matrix(1.3333333,0,0,1.3333333,259.72745,279.21147)" />
    <path
       id="path76"
       d="m 148.03406,-87.98085 64.98115,-30.33055"
       style="fill:none;stroke:#000000;stroke-width:0.79701;stroke-linecap:butt;stroke-linejoin:miter;stroke-miterlimit:10;stroke-dasharray:none;stroke-opacity:1"
       transform="matrix(1.3333333,0,0,-1.3333333,23.21216,167.30595)" />
    <path
       id="path77"
       d="m 6.5152875,-3.0127053 c 0,-1.6992188 -1.2421875,-3.1054688 -2.8242188,-3.1054688 H 0.36294375 v 0.2695313 H 0.5621625 c 0.6914062,0 0.7148437,0.1054687 0.7148437,0.4335937 v 4.71093754 c 0,0.328125 -0.023437,0.421875 -0.7148437,0.421875 H 0.36294375 V -9.865625e-4 H 3.6910687 c 1.5585938,0 2.8242188,-1.3242187375 2.8242188,-3.0117187375 z m -0.890625,0 c 0,0.3632812 0,1.3125 -0.4921875,1.9335937 -0.4570313,0.60937504 -1.1132813,0.79687504 -1.6757813,0.79687504 H 2.4957562 c -0.421875,0 -0.4453125,-0.0585938 -0.4453125,-0.36328125 V -5.4736428 c 0,-0.3046875 0.023437,-0.375 0.4453125,-0.375 h 0.9609375 c 0.8671875,0 1.40625,0.4570312 1.640625,0.7851562 0.3984375,0.515625 0.5273438,1.1601563 0.5273438,2.0507813 z m 0,0"
       style="fill:#000000;fill-opacity:1;fill-rule:nonzero;stroke:none"
       aria-label="D"
       transform="matrix(1.3333333,0,0,1.3333333,259.2192,317.95835)" />
  </g>
</svg>
